%TF.GenerationSoftware,KiCad,Pcbnew,9.0.0*%
%TF.CreationDate,2026-06-29T14:56:33+05:30*%
%TF.ProjectId,White_noise_generator,57686974-655f-46e6-9f69-73655f67656e,rev?*%
%TF.SameCoordinates,Original*%
%TF.FileFunction,Copper,L1,Top*%
%TF.FilePolarity,Positive*%
%FSLAX46Y46*%
G04 Gerber Fmt 4.6, Leading zero omitted, Abs format (unit mm)*
G04 Created by KiCad (PCBNEW 9.0.0) date 2026-06-29 14:56:33*
%MOMM*%
%LPD*%
G01*
G04 APERTURE LIST*
G04 Aperture macros list*
%AMRoundRect*
0 Rectangle with rounded corners*
0 $1 Rounding radius*
0 $2 $3 $4 $5 $6 $7 $8 $9 X,Y pos of 4 corners*
0 Add a 4 corners polygon primitive as box body*
4,1,4,$2,$3,$4,$5,$6,$7,$8,$9,$2,$3,0*
0 Add four circle primitives for the rounded corners*
1,1,$1+$1,$2,$3*
1,1,$1+$1,$4,$5*
1,1,$1+$1,$6,$7*
1,1,$1+$1,$8,$9*
0 Add four rect primitives between the rounded corners*
20,1,$1+$1,$2,$3,$4,$5,0*
20,1,$1+$1,$4,$5,$6,$7,0*
20,1,$1+$1,$6,$7,$8,$9,0*
20,1,$1+$1,$8,$9,$2,$3,0*%
G04 Aperture macros list end*
%TA.AperFunction,SMDPad,CuDef*%
%ADD10R,1.300000X1.300000*%
%TD*%
%TA.AperFunction,SMDPad,CuDef*%
%ADD11R,1.300000X2.000000*%
%TD*%
%TA.AperFunction,SMDPad,CuDef*%
%ADD12R,1.100000X0.650000*%
%TD*%
%TA.AperFunction,SMDPad,CuDef*%
%ADD13RoundRect,0.250000X-0.325000X-1.100000X0.325000X-1.100000X0.325000X1.100000X-0.325000X1.100000X0*%
%TD*%
%TA.AperFunction,SMDPad,CuDef*%
%ADD14RoundRect,0.250000X-0.475000X0.250000X-0.475000X-0.250000X0.475000X-0.250000X0.475000X0.250000X0*%
%TD*%
%TA.AperFunction,ComponentPad*%
%ADD15R,3.500000X3.500000*%
%TD*%
%TA.AperFunction,ComponentPad*%
%ADD16C,3.500000*%
%TD*%
%TA.AperFunction,SMDPad,CuDef*%
%ADD17RoundRect,0.131250X-0.393750X0.438750X-0.393750X-0.438750X0.393750X-0.438750X0.393750X0.438750X0*%
%TD*%
%TA.AperFunction,SMDPad,CuDef*%
%ADD18RoundRect,0.081250X-0.243750X0.488750X-0.243750X-0.488750X0.243750X-0.488750X0.243750X0.488750X0*%
%TD*%
%TA.AperFunction,SMDPad,CuDef*%
%ADD19RoundRect,0.250000X-0.262500X-0.450000X0.262500X-0.450000X0.262500X0.450000X-0.262500X0.450000X0*%
%TD*%
%TA.AperFunction,SMDPad,CuDef*%
%ADD20R,2.150000X0.950000*%
%TD*%
%TA.AperFunction,SMDPad,CuDef*%
%ADD21R,2.150000X3.250000*%
%TD*%
%TA.AperFunction,SMDPad,CuDef*%
%ADD22RoundRect,0.250000X0.262500X0.450000X-0.262500X0.450000X-0.262500X-0.450000X0.262500X-0.450000X0*%
%TD*%
%TA.AperFunction,SMDPad,CuDef*%
%ADD23RoundRect,0.250000X-0.250000X-0.475000X0.250000X-0.475000X0.250000X0.475000X-0.250000X0.475000X0*%
%TD*%
%TA.AperFunction,ComponentPad*%
%ADD24RoundRect,0.250001X1.149999X-1.149999X1.149999X1.149999X-1.149999X1.149999X-1.149999X-1.149999X0*%
%TD*%
%TA.AperFunction,ComponentPad*%
%ADD25C,2.800000*%
%TD*%
%TA.AperFunction,SMDPad,CuDef*%
%ADD26RoundRect,0.250000X0.250000X0.475000X-0.250000X0.475000X-0.250000X-0.475000X0.250000X-0.475000X0*%
%TD*%
%TA.AperFunction,SMDPad,CuDef*%
%ADD27RoundRect,0.250000X0.475000X-0.250000X0.475000X0.250000X-0.475000X0.250000X-0.475000X-0.250000X0*%
%TD*%
%TA.AperFunction,ComponentPad*%
%ADD28R,1.700000X1.700000*%
%TD*%
%TA.AperFunction,ComponentPad*%
%ADD29O,1.700000X1.700000*%
%TD*%
%TA.AperFunction,SMDPad,CuDef*%
%ADD30RoundRect,0.250000X-0.325000X-0.450000X0.325000X-0.450000X0.325000X0.450000X-0.325000X0.450000X0*%
%TD*%
%TA.AperFunction,ViaPad*%
%ADD31C,0.600000*%
%TD*%
%TA.AperFunction,Conductor*%
%ADD32C,0.500000*%
%TD*%
G04 APERTURE END LIST*
D10*
%TO.P,POT,1,CCW*%
%TO.N,Net-(IC1-CATHODE)*%
X128850000Y-88900000D03*
%TO.P,POT,2,WIPER_*%
%TO.N,VREF*%
X128850000Y-86600000D03*
D11*
%TO.P,POT,3,CW*%
%TO.N,GND*%
X123350000Y-87750000D03*
%TD*%
D12*
%TO.P,VREF,1,REF*%
%TO.N,VREF*%
X133350000Y-88040000D03*
%TO.P,VREF,2,CATHODE*%
%TO.N,Net-(IC1-CATHODE)*%
X133350000Y-89960000D03*
%TO.P,VREF,3,ANODE*%
%TO.N,GND*%
X135450000Y-89000000D03*
%TD*%
D13*
%TO.P,C6,1*%
%TO.N,GND*%
X141175000Y-101700000D03*
%TO.P,C6,2*%
%TO.N,+5V*%
X144125000Y-101700000D03*
%TD*%
D14*
%TO.P,C7,1*%
%TO.N,Net-(D1-A)*%
X147100000Y-88400000D03*
%TO.P,C7,2*%
%TO.N,Net-(AR1-IN)*%
X147100000Y-90300000D03*
%TD*%
D15*
%TO.P,J1,1,In*%
%TO.N,Net-(J1-In)*%
X164700000Y-93575000D03*
D16*
%TO.P,J1,2,Ext*%
%TO.N,GND*%
X168700000Y-89550000D03*
X160700000Y-89575000D03*
X168700000Y-97575000D03*
X160700000Y-97600000D03*
%TD*%
D17*
%TO.P,AR2,1,OUT*%
%TO.N,Net-(AR2-OUT)*%
X151202500Y-90545000D03*
D18*
%TO.P,AR2,2,VCC*%
%TO.N,+5V*%
X149497500Y-90545000D03*
%TO.P,AR2,3,IN*%
%TO.N,Net-(AR1-OUT)*%
X149497500Y-92605000D03*
%TO.P,AR2,4,GND*%
%TO.N,GND*%
X151402500Y-92605000D03*
%TD*%
D19*
%TO.P,R2,1*%
%TO.N,VREF*%
X137537500Y-86750000D03*
%TO.P,R2,2*%
%TO.N,GND*%
X139362500Y-86750000D03*
%TD*%
D20*
%TO.P,U1,1,IN*%
%TO.N,VIN*%
X138325000Y-101150000D03*
%TO.P,U1,2,GND-1*%
%TO.N,unconnected-(U1-GND-1-Pad2)*%
X138325000Y-98850000D03*
%TO.P,U1,3,OUT*%
%TO.N,+5V*%
X138325000Y-96550000D03*
D21*
%TO.P,U1,4,GND*%
%TO.N,GND*%
X132525000Y-98850000D03*
%TD*%
D22*
%TO.P,R1,1*%
%TO.N,Net-(D1-A)*%
X144625000Y-91350000D03*
%TO.P,R1,2*%
%TO.N,GND*%
X142800000Y-91350000D03*
%TD*%
D23*
%TO.P,C5,1*%
%TO.N,GND*%
X140925000Y-96800000D03*
%TO.P,C5,2*%
%TO.N,VIN*%
X142825000Y-96800000D03*
%TD*%
D17*
%TO.P,AR3,1,OUT*%
%TO.N,Net-(AR3-OUT)*%
X151205000Y-98865000D03*
D18*
%TO.P,AR3,2,VCC*%
%TO.N,+5V*%
X149500000Y-98865000D03*
%TO.P,AR3,3,IN*%
%TO.N,Net-(AR2-OUT)*%
X149500000Y-100925000D03*
%TO.P,AR3,4,GND*%
%TO.N,GND*%
X151405000Y-100925000D03*
%TD*%
D24*
%TO.P,J3,1,Pin_1*%
%TO.N,GND*%
X126217500Y-99950000D03*
D25*
%TO.P,J3,2,Pin_2*%
%TO.N,VIN*%
X126217500Y-94950000D03*
%TD*%
D17*
%TO.P,AR1,1,OUT*%
%TO.N,Net-(AR1-OUT)*%
X151217500Y-86455000D03*
D18*
%TO.P,AR1,2,VCC*%
%TO.N,+5V*%
X149512500Y-86455000D03*
%TO.P,AR1,3,IN*%
%TO.N,Net-(AR1-IN)*%
X149512500Y-88515000D03*
%TO.P,AR1,4,GND*%
%TO.N,GND*%
X151417500Y-88515000D03*
%TD*%
D26*
%TO.P,C2,1*%
%TO.N,+5V*%
X147500000Y-98975000D03*
%TO.P,C2,2*%
%TO.N,GND*%
X145600000Y-98975000D03*
%TD*%
D27*
%TO.P,C1,1*%
%TO.N,Net-(AR3-OUT)*%
X155050000Y-95175000D03*
%TO.P,C1,2*%
%TO.N,Net-(J1-In)*%
X155050000Y-93275000D03*
%TD*%
D19*
%TO.P,R4,1*%
%TO.N,VIN*%
X133537500Y-92500000D03*
%TO.P,R4,2*%
%TO.N,Net-(IC1-CATHODE)*%
X135362500Y-92500000D03*
%TD*%
D28*
%TO.P,J2,1,Pin_1*%
%TO.N,Net-(AR2-OUT)*%
X149075000Y-95725000D03*
D29*
%TO.P,J2,2,Pin_2*%
%TO.N,Net-(AR3-OUT)*%
X151615000Y-95725000D03*
%TD*%
D30*
%TO.P,D1,1,K*%
%TO.N,VREF*%
X142550000Y-88100000D03*
%TO.P,D1,2,A*%
%TO.N,Net-(D1-A)*%
X144600000Y-88100000D03*
%TD*%
D31*
%TO.N,+5V*%
X149512500Y-90530000D03*
X147500000Y-98975000D03*
X144125000Y-101700000D03*
%TO.N,Net-(AR1-OUT)*%
X149497500Y-92605000D03*
X151217500Y-86455000D03*
%TO.N,+5V*%
X138325000Y-96550000D03*
X149512500Y-86455000D03*
X149500000Y-98865000D03*
%TO.N,VIN*%
X133537500Y-92500000D03*
X142825000Y-96800000D03*
X138325000Y-101150000D03*
%TD*%
D32*
%TO.N,Net-(IC1-CATHODE)*%
X133350000Y-90487500D02*
X135362500Y-92500000D01*
X133350000Y-89960000D02*
X133350000Y-90487500D01*
X133340000Y-89950000D02*
X133350000Y-89960000D01*
X129900000Y-89950000D02*
X133340000Y-89950000D01*
X128850000Y-88900000D02*
X129900000Y-89950000D01*
%TO.N,Net-(AR2-OUT)*%
X150626500Y-91121000D02*
X150626500Y-94173500D01*
X151202500Y-90545000D02*
X150626500Y-91121000D01*
X150626500Y-94173500D02*
X149075000Y-95725000D01*
X148724000Y-100149000D02*
X148724000Y-96076000D01*
X148724000Y-96076000D02*
X149075000Y-95725000D01*
X149500000Y-100925000D02*
X148724000Y-100149000D01*
%TO.N,Net-(AR1-IN)*%
X147100000Y-90300000D02*
X147727500Y-90300000D01*
X147727500Y-90300000D02*
X149512500Y-88515000D01*
%TO.N,Net-(AR3-OUT)*%
X151615000Y-95725000D02*
X151615000Y-98455000D01*
X155050000Y-95175000D02*
X152165000Y-95175000D01*
X152165000Y-95175000D02*
X151615000Y-95725000D01*
X151615000Y-98455000D02*
X151205000Y-98865000D01*
%TO.N,Net-(J1-In)*%
X164400000Y-93275000D02*
X164700000Y-93575000D01*
X155050000Y-93275000D02*
X164400000Y-93275000D01*
%TO.N,VREF*%
X128850000Y-86600000D02*
X131910000Y-86600000D01*
X137537500Y-86750000D02*
X138887500Y-88100000D01*
X131910000Y-86600000D02*
X133350000Y-88040000D01*
X136247500Y-88040000D02*
X137537500Y-86750000D01*
X133350000Y-88040000D02*
X136247500Y-88040000D01*
X138887500Y-88100000D02*
X142550000Y-88100000D01*
%TO.N,Net-(D1-A)*%
X144600000Y-91325000D02*
X144625000Y-91350000D01*
X144600000Y-88100000D02*
X146800000Y-88100000D01*
X146800000Y-88100000D02*
X147100000Y-88400000D01*
X144600000Y-88100000D02*
X144600000Y-91325000D01*
%TD*%
%TA.AperFunction,Conductor*%
%TO.N,GND*%
G36*
X171292627Y-83816365D02*
G01*
X171338590Y-83868988D01*
X171350000Y-83920944D01*
X171350000Y-104326121D01*
X171330315Y-104393160D01*
X171277511Y-104438915D01*
X171226122Y-104450121D01*
X120674122Y-104499877D01*
X120607063Y-104480258D01*
X120561256Y-104427499D01*
X120550000Y-104375877D01*
X120550000Y-98750014D01*
X124317500Y-98750014D01*
X124317500Y-99700000D01*
X125617499Y-99700000D01*
X125592479Y-99760402D01*
X125567500Y-99885981D01*
X125567500Y-100014019D01*
X125592479Y-100139598D01*
X125617499Y-100200000D01*
X124317500Y-100200000D01*
X124317500Y-101149985D01*
X124327993Y-101252689D01*
X124327994Y-101252696D01*
X124383141Y-101419118D01*
X124383143Y-101419123D01*
X124475184Y-101568344D01*
X124599155Y-101692315D01*
X124748376Y-101784356D01*
X124748381Y-101784358D01*
X124914803Y-101839505D01*
X124914810Y-101839506D01*
X125017514Y-101849999D01*
X125017527Y-101850000D01*
X125967500Y-101850000D01*
X125967500Y-100550001D01*
X126027902Y-100575021D01*
X126153481Y-100600000D01*
X126281519Y-100600000D01*
X126407098Y-100575021D01*
X126467500Y-100550001D01*
X126467500Y-101850000D01*
X127417473Y-101850000D01*
X127417485Y-101849999D01*
X127520189Y-101839506D01*
X127520196Y-101839505D01*
X127686618Y-101784358D01*
X127686623Y-101784356D01*
X127835844Y-101692315D01*
X127959815Y-101568344D01*
X128051856Y-101419123D01*
X128051858Y-101419118D01*
X128107005Y-101252696D01*
X128107006Y-101252689D01*
X128117499Y-101149985D01*
X128117500Y-101149972D01*
X128117500Y-100522844D01*
X130950000Y-100522844D01*
X130956401Y-100582372D01*
X130956403Y-100582379D01*
X131006645Y-100717086D01*
X131006649Y-100717093D01*
X131092809Y-100832187D01*
X131092812Y-100832190D01*
X131207906Y-100918350D01*
X131207913Y-100918354D01*
X131342620Y-100968596D01*
X131342627Y-100968598D01*
X131402155Y-100974999D01*
X131402172Y-100975000D01*
X132275000Y-100975000D01*
X132775000Y-100975000D01*
X133647828Y-100975000D01*
X133647844Y-100974999D01*
X133707372Y-100968598D01*
X133707379Y-100968596D01*
X133842086Y-100918354D01*
X133842093Y-100918350D01*
X133957187Y-100832190D01*
X133957190Y-100832187D01*
X134043350Y-100717093D01*
X134043354Y-100717086D01*
X134076903Y-100627135D01*
X136749500Y-100627135D01*
X136749500Y-101672870D01*
X136749501Y-101672876D01*
X136755908Y-101732483D01*
X136806202Y-101867328D01*
X136806206Y-101867335D01*
X136892452Y-101982544D01*
X136892455Y-101982547D01*
X137007664Y-102068793D01*
X137007671Y-102068797D01*
X137142517Y-102119091D01*
X137142516Y-102119091D01*
X137149444Y-102119835D01*
X137202127Y-102125500D01*
X139447872Y-102125499D01*
X139507483Y-102119091D01*
X139642331Y-102068796D01*
X139757546Y-101982546D01*
X139843796Y-101867331D01*
X139850261Y-101849999D01*
X139859818Y-101824374D01*
X139901688Y-101768440D01*
X139967152Y-101744022D01*
X140035425Y-101758873D01*
X140084831Y-101808277D01*
X140100000Y-101867706D01*
X140100000Y-102849971D01*
X140100001Y-102849987D01*
X140110494Y-102952697D01*
X140165641Y-103119119D01*
X140165643Y-103119124D01*
X140257684Y-103268345D01*
X140381654Y-103392315D01*
X140530875Y-103484356D01*
X140530880Y-103484358D01*
X140697302Y-103539505D01*
X140697309Y-103539506D01*
X140800019Y-103549999D01*
X140924999Y-103549999D01*
X141425000Y-103549999D01*
X141549972Y-103549999D01*
X141549986Y-103549998D01*
X141652697Y-103539505D01*
X141819119Y-103484358D01*
X141819124Y-103484356D01*
X141968345Y-103392315D01*
X142092315Y-103268345D01*
X142184356Y-103119124D01*
X142184358Y-103119119D01*
X142239505Y-102952697D01*
X142239506Y-102952690D01*
X142249999Y-102849986D01*
X142250000Y-102849973D01*
X142250000Y-101950000D01*
X141425000Y-101950000D01*
X141425000Y-103549999D01*
X140924999Y-103549999D01*
X140925000Y-103549998D01*
X140925000Y-101450000D01*
X141425000Y-101450000D01*
X142249999Y-101450000D01*
X142249999Y-100550024D01*
X142249998Y-100550016D01*
X142249995Y-100549983D01*
X143049500Y-100549983D01*
X143049500Y-102850001D01*
X143049501Y-102850018D01*
X143060000Y-102952796D01*
X143060001Y-102952799D01*
X143115115Y-103119119D01*
X143115186Y-103119334D01*
X143207288Y-103268656D01*
X143331344Y-103392712D01*
X143480666Y-103484814D01*
X143647203Y-103539999D01*
X143749991Y-103550500D01*
X144500008Y-103550499D01*
X144500016Y-103550498D01*
X144500019Y-103550498D01*
X144556302Y-103544748D01*
X144602797Y-103539999D01*
X144769334Y-103484814D01*
X144918656Y-103392712D01*
X145042712Y-103268656D01*
X145134814Y-103119334D01*
X145189999Y-102952797D01*
X145200500Y-102850009D01*
X145200499Y-100549992D01*
X145198050Y-100526022D01*
X145189999Y-100447203D01*
X145189998Y-100447200D01*
X145163723Y-100367908D01*
X145161610Y-100361533D01*
X145159209Y-100291706D01*
X145194941Y-100231664D01*
X145257461Y-100200471D01*
X145291925Y-100199173D01*
X145300015Y-100199999D01*
X145349999Y-100199998D01*
X145350000Y-100199998D01*
X145350000Y-99225000D01*
X144600001Y-99225000D01*
X144600001Y-99499986D01*
X144610494Y-99602697D01*
X144638761Y-99688000D01*
X144641163Y-99757828D01*
X144605431Y-99817870D01*
X144542911Y-99849063D01*
X144508457Y-99850362D01*
X144500028Y-99849501D01*
X144500012Y-99849500D01*
X144500009Y-99849500D01*
X144500003Y-99849500D01*
X143749998Y-99849500D01*
X143749980Y-99849501D01*
X143647203Y-99860000D01*
X143647200Y-99860001D01*
X143480668Y-99915185D01*
X143480663Y-99915187D01*
X143331342Y-100007289D01*
X143207289Y-100131342D01*
X143115187Y-100280663D01*
X143115185Y-100280668D01*
X143102995Y-100317455D01*
X143060001Y-100447203D01*
X143060001Y-100447204D01*
X143060000Y-100447204D01*
X143049500Y-100549983D01*
X142249995Y-100549983D01*
X142239505Y-100447302D01*
X142184358Y-100280880D01*
X142184356Y-100280875D01*
X142092315Y-100131654D01*
X141968345Y-100007684D01*
X141819124Y-99915643D01*
X141819119Y-99915641D01*
X141652697Y-99860494D01*
X141652690Y-99860493D01*
X141549986Y-99850000D01*
X141425000Y-99850000D01*
X141425000Y-101450000D01*
X140925000Y-101450000D01*
X140925000Y-99850000D01*
X140800027Y-99850000D01*
X140800012Y-99850001D01*
X140697302Y-99860494D01*
X140530880Y-99915641D01*
X140530875Y-99915643D01*
X140381654Y-100007684D01*
X140257684Y-100131654D01*
X140165643Y-100280875D01*
X140165641Y-100280880D01*
X140110494Y-100447302D01*
X140110493Y-100447308D01*
X140108292Y-100468853D01*
X140081894Y-100533544D01*
X140024712Y-100573694D01*
X139954901Y-100576555D01*
X139894625Y-100541219D01*
X139868752Y-100499579D01*
X139843798Y-100432673D01*
X139843793Y-100432664D01*
X139757547Y-100317455D01*
X139757544Y-100317452D01*
X139642335Y-100231206D01*
X139642328Y-100231202D01*
X139507482Y-100180908D01*
X139507483Y-100180908D01*
X139447883Y-100174501D01*
X139447881Y-100174500D01*
X139447873Y-100174500D01*
X139447864Y-100174500D01*
X137202129Y-100174500D01*
X137202123Y-100174501D01*
X137142516Y-100180908D01*
X137007671Y-100231202D01*
X137007664Y-100231206D01*
X136892455Y-100317452D01*
X136892452Y-100317455D01*
X136806206Y-100432664D01*
X136806202Y-100432671D01*
X136755908Y-100567517D01*
X136749501Y-100627116D01*
X136749500Y-100627135D01*
X134076903Y-100627135D01*
X134093596Y-100582379D01*
X134093598Y-100582372D01*
X134099999Y-100522844D01*
X134100000Y-100522827D01*
X134100000Y-99100000D01*
X132775000Y-99100000D01*
X132775000Y-100975000D01*
X132275000Y-100975000D01*
X132275000Y-99100000D01*
X130950000Y-99100000D01*
X130950000Y-100522844D01*
X128117500Y-100522844D01*
X128117500Y-100200000D01*
X126817501Y-100200000D01*
X126842521Y-100139598D01*
X126867500Y-100014019D01*
X126867500Y-99885981D01*
X126842521Y-99760402D01*
X126817501Y-99700000D01*
X128117500Y-99700000D01*
X128117500Y-98750027D01*
X128117499Y-98750014D01*
X128107006Y-98647310D01*
X128107005Y-98647303D01*
X128051858Y-98480881D01*
X128051856Y-98480876D01*
X127959815Y-98331655D01*
X127835844Y-98207684D01*
X127686623Y-98115643D01*
X127686618Y-98115641D01*
X127520196Y-98060494D01*
X127520189Y-98060493D01*
X127417485Y-98050000D01*
X126467500Y-98050000D01*
X126467500Y-99349998D01*
X126407098Y-99324979D01*
X126281519Y-99300000D01*
X126153481Y-99300000D01*
X126027902Y-99324979D01*
X125967500Y-99349998D01*
X125967500Y-98050000D01*
X125017514Y-98050000D01*
X124914810Y-98060493D01*
X124914803Y-98060494D01*
X124748381Y-98115641D01*
X124748376Y-98115643D01*
X124599155Y-98207684D01*
X124475184Y-98331655D01*
X124383143Y-98480876D01*
X124383141Y-98480881D01*
X124327994Y-98647303D01*
X124327993Y-98647310D01*
X124317500Y-98750014D01*
X120550000Y-98750014D01*
X120550000Y-97177155D01*
X130950000Y-97177155D01*
X130950000Y-98600000D01*
X132275000Y-98600000D01*
X132775000Y-98600000D01*
X134100000Y-98600000D01*
X134100000Y-98327135D01*
X136749500Y-98327135D01*
X136749500Y-99372870D01*
X136749501Y-99372876D01*
X136755908Y-99432483D01*
X136806202Y-99567328D01*
X136806206Y-99567335D01*
X136892452Y-99682544D01*
X136892455Y-99682547D01*
X137007664Y-99768793D01*
X137007671Y-99768797D01*
X137142517Y-99819091D01*
X137142516Y-99819091D01*
X137149444Y-99819835D01*
X137202127Y-99825500D01*
X139447872Y-99825499D01*
X139507483Y-99819091D01*
X139642331Y-99768796D01*
X139757546Y-99682546D01*
X139843796Y-99567331D01*
X139894091Y-99432483D01*
X139900500Y-99372873D01*
X139900499Y-98450013D01*
X144600000Y-98450013D01*
X144600000Y-98725000D01*
X145350000Y-98725000D01*
X145350000Y-97750000D01*
X145349999Y-97749999D01*
X145300029Y-97750000D01*
X145300011Y-97750001D01*
X145197302Y-97760494D01*
X145030880Y-97815641D01*
X145030875Y-97815643D01*
X144881654Y-97907684D01*
X144757684Y-98031654D01*
X144665643Y-98180875D01*
X144665641Y-98180880D01*
X144610494Y-98347302D01*
X144610493Y-98347309D01*
X144600000Y-98450013D01*
X139900499Y-98450013D01*
X139900499Y-98327128D01*
X139894091Y-98267517D01*
X139893018Y-98264641D01*
X139843797Y-98132671D01*
X139843793Y-98132664D01*
X139757547Y-98017455D01*
X139757544Y-98017452D01*
X139642335Y-97931206D01*
X139642328Y-97931202D01*
X139507482Y-97880908D01*
X139507483Y-97880908D01*
X139447883Y-97874501D01*
X139447881Y-97874500D01*
X139447873Y-97874500D01*
X139447864Y-97874500D01*
X137202129Y-97874500D01*
X137202123Y-97874501D01*
X137142516Y-97880908D01*
X137007671Y-97931202D01*
X137007664Y-97931206D01*
X136892455Y-98017452D01*
X136892452Y-98017455D01*
X136806206Y-98132664D01*
X136806202Y-98132671D01*
X136755908Y-98267517D01*
X136749501Y-98327116D01*
X136749501Y-98327123D01*
X136749500Y-98327135D01*
X134100000Y-98327135D01*
X134100000Y-97177172D01*
X134099999Y-97177155D01*
X134093598Y-97117627D01*
X134093596Y-97117620D01*
X134043354Y-96982913D01*
X134043350Y-96982906D01*
X133957190Y-96867812D01*
X133957187Y-96867809D01*
X133842093Y-96781649D01*
X133842086Y-96781645D01*
X133707379Y-96731403D01*
X133707372Y-96731401D01*
X133647844Y-96725000D01*
X132775000Y-96725000D01*
X132775000Y-98600000D01*
X132275000Y-98600000D01*
X132275000Y-96725000D01*
X131402155Y-96725000D01*
X131342627Y-96731401D01*
X131342620Y-96731403D01*
X131207913Y-96781645D01*
X131207906Y-96781649D01*
X131092812Y-96867809D01*
X131092809Y-96867812D01*
X131006649Y-96982906D01*
X131006645Y-96982913D01*
X130956403Y-97117620D01*
X130956401Y-97117627D01*
X130950000Y-97177155D01*
X120550000Y-97177155D01*
X120550000Y-94825435D01*
X124317000Y-94825435D01*
X124317000Y-95074565D01*
X124349518Y-95321565D01*
X124381208Y-95439835D01*
X124413998Y-95562207D01*
X124509330Y-95792361D01*
X124509337Y-95792376D01*
X124633900Y-96008126D01*
X124785560Y-96205774D01*
X124785566Y-96205781D01*
X124961718Y-96381933D01*
X124961725Y-96381939D01*
X125159373Y-96533599D01*
X125375123Y-96658162D01*
X125375138Y-96658169D01*
X125474325Y-96699253D01*
X125605293Y-96753502D01*
X125845935Y-96817982D01*
X126092935Y-96850500D01*
X126092942Y-96850500D01*
X126342058Y-96850500D01*
X126342065Y-96850500D01*
X126589065Y-96817982D01*
X126829707Y-96753502D01*
X127059873Y-96658164D01*
X127275627Y-96533599D01*
X127473276Y-96381938D01*
X127649438Y-96205776D01*
X127786514Y-96027135D01*
X136749500Y-96027135D01*
X136749500Y-97072870D01*
X136749501Y-97072876D01*
X136755908Y-97132483D01*
X136806202Y-97267328D01*
X136806206Y-97267335D01*
X136892452Y-97382544D01*
X136892455Y-97382547D01*
X137007664Y-97468793D01*
X137007671Y-97468797D01*
X137142517Y-97519091D01*
X137142516Y-97519091D01*
X137149444Y-97519835D01*
X137202127Y-97525500D01*
X139447872Y-97525499D01*
X139507483Y-97519091D01*
X139642331Y-97468796D01*
X139750287Y-97387979D01*
X139815748Y-97363563D01*
X139884021Y-97378414D01*
X139933427Y-97427819D01*
X139942302Y-97448242D01*
X139990642Y-97594121D01*
X139990643Y-97594124D01*
X140082684Y-97743345D01*
X140206654Y-97867315D01*
X140355875Y-97959356D01*
X140355880Y-97959358D01*
X140522302Y-98014505D01*
X140522309Y-98014506D01*
X140625019Y-98024999D01*
X140674999Y-98024998D01*
X140675000Y-98024998D01*
X140675000Y-95575000D01*
X141175000Y-95575000D01*
X141175000Y-98024999D01*
X141224972Y-98024999D01*
X141224986Y-98024998D01*
X141327697Y-98014505D01*
X141494119Y-97959358D01*
X141494124Y-97959356D01*
X141643345Y-97867315D01*
X141767318Y-97743342D01*
X141769165Y-97740348D01*
X141770969Y-97738724D01*
X141771798Y-97737677D01*
X141771976Y-97737818D01*
X141821110Y-97693621D01*
X141890073Y-97682396D01*
X141954156Y-97710236D01*
X141980243Y-97740341D01*
X141982288Y-97743656D01*
X142106344Y-97867712D01*
X142255666Y-97959814D01*
X142422203Y-98014999D01*
X142524991Y-98025500D01*
X143125008Y-98025499D01*
X143125016Y-98025498D01*
X143125019Y-98025498D01*
X143203754Y-98017455D01*
X143227797Y-98014999D01*
X143394334Y-97959814D01*
X143543656Y-97867712D01*
X143667712Y-97743656D01*
X143759814Y-97594334D01*
X143814999Y-97427797D01*
X143825500Y-97325009D01*
X143825499Y-96274992D01*
X143814999Y-96172203D01*
X143759814Y-96005666D01*
X143667712Y-95856344D01*
X143543656Y-95732288D01*
X143394334Y-95640186D01*
X143227797Y-95585001D01*
X143227795Y-95585000D01*
X143125010Y-95574500D01*
X142524998Y-95574500D01*
X142524980Y-95574501D01*
X142422203Y-95585000D01*
X142422200Y-95585001D01*
X142255668Y-95640185D01*
X142255663Y-95640187D01*
X142106342Y-95732289D01*
X141982288Y-95856343D01*
X141982283Y-95856349D01*
X141980241Y-95859661D01*
X141978247Y-95861453D01*
X141977807Y-95862011D01*
X141977711Y-95861935D01*
X141928291Y-95906383D01*
X141859328Y-95917602D01*
X141795247Y-95889755D01*
X141769168Y-95859656D01*
X141767319Y-95856659D01*
X141767316Y-95856655D01*
X141643345Y-95732684D01*
X141494124Y-95640643D01*
X141494119Y-95640641D01*
X141327697Y-95585494D01*
X141327690Y-95585493D01*
X141224986Y-95575000D01*
X141175000Y-95575000D01*
X140675000Y-95575000D01*
X140674999Y-95574999D01*
X140625029Y-95575000D01*
X140625011Y-95575001D01*
X140522302Y-95585494D01*
X140355880Y-95640641D01*
X140355875Y-95640643D01*
X140206654Y-95732684D01*
X140082683Y-95856655D01*
X140082681Y-95856658D01*
X140072499Y-95873165D01*
X140020550Y-95919887D01*
X139951587Y-95931107D01*
X139887506Y-95903261D01*
X139850780Y-95851395D01*
X139843796Y-95832669D01*
X139843793Y-95832664D01*
X139757547Y-95717455D01*
X139757544Y-95717452D01*
X139642335Y-95631206D01*
X139642328Y-95631202D01*
X139507482Y-95580908D01*
X139507483Y-95580908D01*
X139447883Y-95574501D01*
X139447881Y-95574500D01*
X139447873Y-95574500D01*
X139447864Y-95574500D01*
X137202129Y-95574500D01*
X137202123Y-95574501D01*
X137142516Y-95580908D01*
X137007671Y-95631202D01*
X137007664Y-95631206D01*
X136892455Y-95717452D01*
X136892452Y-95717455D01*
X136806206Y-95832664D01*
X136806202Y-95832671D01*
X136755908Y-95967517D01*
X136749501Y-96027116D01*
X136749500Y-96027135D01*
X127786514Y-96027135D01*
X127801099Y-96008127D01*
X127813249Y-95987081D01*
X127827843Y-95961806D01*
X127827844Y-95961804D01*
X127911574Y-95816777D01*
X127925664Y-95792373D01*
X128021002Y-95562207D01*
X128085482Y-95321565D01*
X128118000Y-95074565D01*
X128118000Y-94825435D01*
X128085482Y-94578435D01*
X128021002Y-94337793D01*
X127952084Y-94171411D01*
X127925669Y-94107638D01*
X127925662Y-94107623D01*
X127801099Y-93891873D01*
X127649439Y-93694225D01*
X127649433Y-93694218D01*
X127473281Y-93518066D01*
X127473274Y-93518060D01*
X127275626Y-93366400D01*
X127059876Y-93241837D01*
X127059861Y-93241830D01*
X126829707Y-93146498D01*
X126775010Y-93131842D01*
X126589065Y-93082018D01*
X126589064Y-93082017D01*
X126589061Y-93082017D01*
X126342075Y-93049501D01*
X126342070Y-93049500D01*
X126342065Y-93049500D01*
X126092935Y-93049500D01*
X126092929Y-93049500D01*
X126092924Y-93049501D01*
X125845938Y-93082017D01*
X125605292Y-93146498D01*
X125375138Y-93241830D01*
X125375123Y-93241837D01*
X125159373Y-93366400D01*
X124961725Y-93518060D01*
X124961718Y-93518066D01*
X124785566Y-93694218D01*
X124785560Y-93694225D01*
X124633900Y-93891873D01*
X124509337Y-94107623D01*
X124509330Y-94107638D01*
X124413998Y-94337792D01*
X124349517Y-94578438D01*
X124324625Y-94767517D01*
X124317000Y-94825435D01*
X120550000Y-94825435D01*
X120550000Y-88797844D01*
X122200000Y-88797844D01*
X122206401Y-88857372D01*
X122206403Y-88857379D01*
X122256645Y-88992086D01*
X122256649Y-88992093D01*
X122342809Y-89107187D01*
X122342812Y-89107190D01*
X122457906Y-89193350D01*
X122457913Y-89193354D01*
X122592620Y-89243596D01*
X122592627Y-89243598D01*
X122652155Y-89249999D01*
X122652172Y-89250000D01*
X123100000Y-89250000D01*
X123600000Y-89250000D01*
X124047828Y-89250000D01*
X124047844Y-89249999D01*
X124107372Y-89243598D01*
X124107379Y-89243596D01*
X124242086Y-89193354D01*
X124242093Y-89193350D01*
X124357187Y-89107190D01*
X124357190Y-89107187D01*
X124443350Y-88992093D01*
X124443354Y-88992086D01*
X124493596Y-88857379D01*
X124493598Y-88857372D01*
X124499999Y-88797844D01*
X124500000Y-88797827D01*
X124500000Y-88000000D01*
X123600000Y-88000000D01*
X123600000Y-89250000D01*
X123100000Y-89250000D01*
X123100000Y-88000000D01*
X122200000Y-88000000D01*
X122200000Y-88797844D01*
X120550000Y-88797844D01*
X120550000Y-86702155D01*
X122200000Y-86702155D01*
X122200000Y-87500000D01*
X123100000Y-87500000D01*
X123600000Y-87500000D01*
X124500000Y-87500000D01*
X124500000Y-86702172D01*
X124499999Y-86702155D01*
X124493598Y-86642627D01*
X124493596Y-86642620D01*
X124443354Y-86507913D01*
X124443350Y-86507906D01*
X124357190Y-86392812D01*
X124357187Y-86392809D01*
X124242093Y-86306649D01*
X124242086Y-86306645D01*
X124107379Y-86256403D01*
X124107372Y-86256401D01*
X124047844Y-86250000D01*
X123600000Y-86250000D01*
X123600000Y-87500000D01*
X123100000Y-87500000D01*
X123100000Y-86250000D01*
X122652155Y-86250000D01*
X122592627Y-86256401D01*
X122592620Y-86256403D01*
X122457913Y-86306645D01*
X122457906Y-86306649D01*
X122342812Y-86392809D01*
X122342809Y-86392812D01*
X122256649Y-86507906D01*
X122256645Y-86507913D01*
X122206403Y-86642620D01*
X122206401Y-86642627D01*
X122200000Y-86702155D01*
X120550000Y-86702155D01*
X120550000Y-85902135D01*
X127699500Y-85902135D01*
X127699500Y-87297870D01*
X127699501Y-87297876D01*
X127705908Y-87357483D01*
X127756202Y-87492328D01*
X127756206Y-87492335D01*
X127842452Y-87607544D01*
X127842453Y-87607544D01*
X127842454Y-87607546D01*
X127871615Y-87629376D01*
X127900145Y-87650734D01*
X127942015Y-87706668D01*
X127946999Y-87776360D01*
X127913513Y-87837683D01*
X127900145Y-87849266D01*
X127842452Y-87892455D01*
X127756206Y-88007664D01*
X127756202Y-88007671D01*
X127705908Y-88142517D01*
X127699501Y-88202116D01*
X127699501Y-88202123D01*
X127699500Y-88202135D01*
X127699500Y-89597870D01*
X127699501Y-89597876D01*
X127705908Y-89657483D01*
X127756202Y-89792328D01*
X127756206Y-89792335D01*
X127842452Y-89907544D01*
X127842455Y-89907547D01*
X127957664Y-89993793D01*
X127957671Y-89993797D01*
X128092517Y-90044091D01*
X128092516Y-90044091D01*
X128099444Y-90044835D01*
X128152127Y-90050500D01*
X128887769Y-90050499D01*
X128954808Y-90070183D01*
X128975450Y-90086818D01*
X129421580Y-90532948D01*
X129421584Y-90532951D01*
X129544498Y-90615080D01*
X129544511Y-90615087D01*
X129681082Y-90671656D01*
X129681087Y-90671658D01*
X129681091Y-90671658D01*
X129681092Y-90671659D01*
X129826079Y-90700500D01*
X129826082Y-90700500D01*
X129973917Y-90700500D01*
X132478599Y-90700500D01*
X132530666Y-90711961D01*
X132542484Y-90717428D01*
X132557669Y-90728796D01*
X132606079Y-90746851D01*
X132610381Y-90748842D01*
X132633249Y-90768855D01*
X132657581Y-90787070D01*
X132661077Y-90793210D01*
X132662959Y-90794857D01*
X132663926Y-90798213D01*
X132672874Y-90813926D01*
X132684914Y-90842992D01*
X132702515Y-90869334D01*
X132702514Y-90869334D01*
X132767046Y-90965914D01*
X132767052Y-90965921D01*
X132975063Y-91173931D01*
X133008548Y-91235254D01*
X133003564Y-91304945D01*
X132961693Y-91360879D01*
X132952479Y-91367150D01*
X132806347Y-91457285D01*
X132806343Y-91457288D01*
X132682289Y-91581342D01*
X132590187Y-91730663D01*
X132590185Y-91730668D01*
X132574790Y-91777127D01*
X132535001Y-91897203D01*
X132535001Y-91897204D01*
X132535000Y-91897204D01*
X132524500Y-91999983D01*
X132524500Y-93000001D01*
X132524501Y-93000019D01*
X132535000Y-93102796D01*
X132535001Y-93102799D01*
X132582284Y-93245487D01*
X132590186Y-93269334D01*
X132682288Y-93418656D01*
X132806344Y-93542712D01*
X132955666Y-93634814D01*
X133122203Y-93689999D01*
X133224991Y-93700500D01*
X133850008Y-93700499D01*
X133850016Y-93700498D01*
X133850019Y-93700498D01*
X133911495Y-93694218D01*
X133952797Y-93689999D01*
X134119334Y-93634814D01*
X134268656Y-93542712D01*
X134362319Y-93449049D01*
X134423642Y-93415564D01*
X134493334Y-93420548D01*
X134537681Y-93449049D01*
X134631344Y-93542712D01*
X134780666Y-93634814D01*
X134947203Y-93689999D01*
X135049991Y-93700500D01*
X135675008Y-93700499D01*
X135675016Y-93700498D01*
X135675019Y-93700498D01*
X135736495Y-93694218D01*
X135777797Y-93689999D01*
X135944334Y-93634814D01*
X136093656Y-93542712D01*
X136217712Y-93418656D01*
X136309814Y-93269334D01*
X136364999Y-93102797D01*
X136375500Y-93000009D01*
X136375499Y-91999992D01*
X136364999Y-91897203D01*
X136349353Y-91849986D01*
X141787501Y-91849986D01*
X141797994Y-91952697D01*
X141853141Y-92119119D01*
X141853143Y-92119124D01*
X141945184Y-92268345D01*
X142069154Y-92392315D01*
X142218375Y-92484356D01*
X142218380Y-92484358D01*
X142384802Y-92539505D01*
X142384809Y-92539506D01*
X142487519Y-92549999D01*
X142549999Y-92549998D01*
X142550000Y-92549998D01*
X142550000Y-91600000D01*
X141787501Y-91600000D01*
X141787501Y-91849986D01*
X136349353Y-91849986D01*
X136309814Y-91730666D01*
X136217712Y-91581344D01*
X136093656Y-91457288D01*
X135970307Y-91381206D01*
X135944336Y-91365187D01*
X135944331Y-91365185D01*
X135931336Y-91360879D01*
X135777797Y-91310001D01*
X135777795Y-91310000D01*
X135675016Y-91299500D01*
X135675009Y-91299500D01*
X135274730Y-91299500D01*
X135207691Y-91279815D01*
X135187049Y-91263181D01*
X134773881Y-90850013D01*
X141787500Y-90850013D01*
X141787500Y-91100000D01*
X142550000Y-91100000D01*
X142550000Y-90150000D01*
X142549999Y-90149999D01*
X142487528Y-90150000D01*
X142487511Y-90150001D01*
X142384802Y-90160494D01*
X142218380Y-90215641D01*
X142218375Y-90215643D01*
X142069154Y-90307684D01*
X141945184Y-90431654D01*
X141853143Y-90580875D01*
X141853141Y-90580880D01*
X141797994Y-90747302D01*
X141797993Y-90747309D01*
X141787500Y-90850013D01*
X134773881Y-90850013D01*
X134428130Y-90504262D01*
X134394645Y-90442939D01*
X134395027Y-90400385D01*
X134393261Y-90400196D01*
X134394089Y-90392486D01*
X134394091Y-90392483D01*
X134400500Y-90332873D01*
X134400499Y-89823374D01*
X134420183Y-89756337D01*
X134472987Y-89710582D01*
X134542146Y-89700638D01*
X134598811Y-89724110D01*
X134657910Y-89768352D01*
X134657913Y-89768354D01*
X134792620Y-89818596D01*
X134792627Y-89818598D01*
X134852155Y-89824999D01*
X134852172Y-89825000D01*
X135200000Y-89825000D01*
X135700000Y-89825000D01*
X136047828Y-89825000D01*
X136047844Y-89824999D01*
X136107372Y-89818598D01*
X136107379Y-89818596D01*
X136242086Y-89768354D01*
X136242093Y-89768350D01*
X136357187Y-89682190D01*
X136357190Y-89682187D01*
X136443350Y-89567093D01*
X136443354Y-89567086D01*
X136493596Y-89432379D01*
X136493598Y-89432372D01*
X136499999Y-89372844D01*
X136500000Y-89372827D01*
X136500000Y-89250000D01*
X135700000Y-89250000D01*
X135700000Y-89825000D01*
X135200000Y-89825000D01*
X135200000Y-89250000D01*
X134399999Y-89250000D01*
X134399288Y-89250711D01*
X134337964Y-89284196D01*
X134268273Y-89279210D01*
X134237297Y-89262295D01*
X134142335Y-89191206D01*
X134142328Y-89191202D01*
X134007482Y-89140908D01*
X134007483Y-89140908D01*
X133947883Y-89134501D01*
X133947881Y-89134500D01*
X133947873Y-89134500D01*
X133947864Y-89134500D01*
X132752129Y-89134500D01*
X132752123Y-89134501D01*
X132692516Y-89140908D01*
X132556386Y-89191682D01*
X132513053Y-89199500D01*
X130262229Y-89199500D01*
X130232788Y-89190855D01*
X130202802Y-89184332D01*
X130197786Y-89180577D01*
X130195190Y-89179815D01*
X130174548Y-89163181D01*
X130036818Y-89025451D01*
X130003333Y-88964128D01*
X130000499Y-88937770D01*
X130000499Y-88202129D01*
X130000498Y-88202123D01*
X130000497Y-88202116D01*
X129995299Y-88153757D01*
X129994091Y-88142516D01*
X129943797Y-88007671D01*
X129943793Y-88007664D01*
X129857547Y-87892456D01*
X129857548Y-87892456D01*
X129857546Y-87892454D01*
X129799854Y-87849265D01*
X129757984Y-87793333D01*
X129753000Y-87723641D01*
X129786485Y-87662318D01*
X129799854Y-87650734D01*
X129857546Y-87607546D01*
X129943796Y-87492331D01*
X129961042Y-87446092D01*
X129966609Y-87431167D01*
X130008480Y-87375233D01*
X130073944Y-87350816D01*
X130082791Y-87350500D01*
X131547770Y-87350500D01*
X131614809Y-87370185D01*
X131635451Y-87386819D01*
X132263181Y-88014548D01*
X132296666Y-88075871D01*
X132299500Y-88102229D01*
X132299500Y-88412869D01*
X132299501Y-88412876D01*
X132305908Y-88472483D01*
X132356202Y-88607328D01*
X132356206Y-88607335D01*
X132442452Y-88722544D01*
X132442455Y-88722547D01*
X132557664Y-88808793D01*
X132557671Y-88808797D01*
X132692517Y-88859091D01*
X132692516Y-88859091D01*
X132699444Y-88859835D01*
X132752127Y-88865500D01*
X133947872Y-88865499D01*
X134007483Y-88859091D01*
X134142331Y-88808796D01*
X134142333Y-88808793D01*
X134148058Y-88805669D01*
X134207487Y-88790500D01*
X136321420Y-88790500D01*
X136418962Y-88771096D01*
X136466413Y-88761658D01*
X136602995Y-88705084D01*
X136652229Y-88672186D01*
X136725916Y-88622952D01*
X137362048Y-87986817D01*
X137388975Y-87972114D01*
X137414794Y-87955522D01*
X137420994Y-87954630D01*
X137423371Y-87953333D01*
X137449729Y-87950499D01*
X137625269Y-87950499D01*
X137692308Y-87970184D01*
X137712950Y-87986818D01*
X138013329Y-88287196D01*
X138304549Y-88578416D01*
X138366765Y-88640632D01*
X138409085Y-88682952D01*
X138531998Y-88765080D01*
X138532011Y-88765087D01*
X138668582Y-88821656D01*
X138668587Y-88821658D01*
X138668591Y-88821658D01*
X138668592Y-88821659D01*
X138813579Y-88850500D01*
X138813582Y-88850500D01*
X141459362Y-88850500D01*
X141526401Y-88870185D01*
X141564899Y-88909401D01*
X141632288Y-89018656D01*
X141756344Y-89142712D01*
X141905666Y-89234814D01*
X142072203Y-89289999D01*
X142174991Y-89300500D01*
X142925008Y-89300499D01*
X142925016Y-89300498D01*
X142925019Y-89300498D01*
X142981302Y-89294748D01*
X143027797Y-89289999D01*
X143194334Y-89234814D01*
X143343656Y-89142712D01*
X143467712Y-89018656D01*
X143469461Y-89015819D01*
X143471169Y-89014283D01*
X143472193Y-89012989D01*
X143472414Y-89013163D01*
X143521406Y-88969096D01*
X143590368Y-88957872D01*
X143654451Y-88985713D01*
X143664227Y-88994808D01*
X143673514Y-89004432D01*
X143682288Y-89018656D01*
X143806344Y-89142712D01*
X143807868Y-89143652D01*
X143814727Y-89150759D01*
X143827208Y-89174616D01*
X143842774Y-89196583D01*
X143844683Y-89208017D01*
X143847116Y-89212668D01*
X143846538Y-89219128D01*
X143849500Y-89236867D01*
X143849500Y-90300270D01*
X143829815Y-90367309D01*
X143813182Y-90387949D01*
X143800936Y-90400196D01*
X143799824Y-90401308D01*
X143738500Y-90434790D01*
X143668808Y-90429803D01*
X143624465Y-90401304D01*
X143530845Y-90307684D01*
X143381624Y-90215643D01*
X143381619Y-90215641D01*
X143215197Y-90160494D01*
X143215190Y-90160493D01*
X143112486Y-90150000D01*
X143050000Y-90150000D01*
X143050000Y-92549999D01*
X143112472Y-92549999D01*
X143112486Y-92549998D01*
X143215197Y-92539505D01*
X143381619Y-92484358D01*
X143381624Y-92484356D01*
X143530842Y-92392317D01*
X143624464Y-92298695D01*
X143685787Y-92265210D01*
X143755479Y-92270194D01*
X143799827Y-92298695D01*
X143893844Y-92392712D01*
X144043166Y-92484814D01*
X144209703Y-92539999D01*
X144312491Y-92550500D01*
X144937508Y-92550499D01*
X144937516Y-92550498D01*
X144937519Y-92550498D01*
X144993802Y-92544748D01*
X145040297Y-92539999D01*
X145206834Y-92484814D01*
X145356156Y-92392712D01*
X145480212Y-92268656D01*
X145572314Y-92119334D01*
X145627499Y-91952797D01*
X145638000Y-91850009D01*
X145637999Y-90849992D01*
X145635724Y-90827725D01*
X145627499Y-90747203D01*
X145627498Y-90747200D01*
X145572314Y-90580666D01*
X145480212Y-90431344D01*
X145386819Y-90337951D01*
X145353334Y-90276628D01*
X145350500Y-90250270D01*
X145350500Y-89236867D01*
X145370185Y-89169828D01*
X145389386Y-89148656D01*
X145388549Y-89147819D01*
X145439465Y-89096903D01*
X145517712Y-89018656D01*
X145585099Y-88909402D01*
X145592686Y-88902578D01*
X145596925Y-88893297D01*
X145618224Y-88879608D01*
X145637047Y-88862679D01*
X145648682Y-88860034D01*
X145655703Y-88855523D01*
X145690638Y-88850500D01*
X145811267Y-88850500D01*
X145878306Y-88870185D01*
X145924061Y-88922989D01*
X145928972Y-88935494D01*
X145940184Y-88969328D01*
X145940187Y-88969336D01*
X145952397Y-88989132D01*
X145984932Y-89041880D01*
X146032289Y-89118657D01*
X146156346Y-89242714D01*
X146159182Y-89244463D01*
X146160717Y-89246170D01*
X146162011Y-89247193D01*
X146161836Y-89247414D01*
X146205905Y-89296411D01*
X146217126Y-89365374D01*
X146189282Y-89429456D01*
X146159182Y-89455537D01*
X146156346Y-89457285D01*
X146032289Y-89581342D01*
X145940187Y-89730663D01*
X145940185Y-89730668D01*
X145919753Y-89792328D01*
X145885001Y-89897203D01*
X145885001Y-89897204D01*
X145885000Y-89897204D01*
X145874500Y-89999983D01*
X145874500Y-90600001D01*
X145874501Y-90600019D01*
X145885000Y-90702796D01*
X145885001Y-90702799D01*
X145922699Y-90816563D01*
X145940186Y-90869334D01*
X146032288Y-91018656D01*
X146156344Y-91142712D01*
X146305666Y-91234814D01*
X146472203Y-91289999D01*
X146574991Y-91300500D01*
X147625008Y-91300499D01*
X147625016Y-91300498D01*
X147625019Y-91300498D01*
X147681302Y-91294748D01*
X147727797Y-91289999D01*
X147894334Y-91234814D01*
X148043656Y-91142712D01*
X148167712Y-91018656D01*
X148259814Y-90869334D01*
X148270531Y-90836988D01*
X148277376Y-90825890D01*
X148279406Y-90816563D01*
X148300551Y-90788315D01*
X148460321Y-90628545D01*
X148521642Y-90595063D01*
X148591334Y-90600047D01*
X148647267Y-90641919D01*
X148671684Y-90707383D01*
X148672000Y-90716229D01*
X148672000Y-91071887D01*
X148681325Y-91142710D01*
X148685435Y-91173931D01*
X148686974Y-91185616D01*
X148686975Y-91185620D01*
X148745590Y-91327132D01*
X148745591Y-91327134D01*
X148745592Y-91327135D01*
X148838841Y-91448659D01*
X148875287Y-91476625D01*
X148916489Y-91533053D01*
X148920643Y-91602800D01*
X148886430Y-91663719D01*
X148875288Y-91673374D01*
X148838841Y-91701341D01*
X148826429Y-91717517D01*
X148745590Y-91822867D01*
X148686975Y-91964379D01*
X148686974Y-91964383D01*
X148672000Y-92078112D01*
X148672000Y-93131887D01*
X148685102Y-93231399D01*
X148686475Y-93241830D01*
X148686974Y-93245616D01*
X148686975Y-93245620D01*
X148745590Y-93387132D01*
X148745591Y-93387134D01*
X148745592Y-93387135D01*
X148838841Y-93508659D01*
X148960365Y-93601908D01*
X149101883Y-93660526D01*
X149209863Y-93674742D01*
X149211814Y-93674999D01*
X149215620Y-93675500D01*
X149215627Y-93675500D01*
X149752000Y-93675500D01*
X149760685Y-93678050D01*
X149769647Y-93676762D01*
X149793687Y-93687740D01*
X149819039Y-93695185D01*
X149824966Y-93702025D01*
X149833203Y-93705787D01*
X149847492Y-93728021D01*
X149864794Y-93747989D01*
X149867081Y-93758503D01*
X149870977Y-93764565D01*
X149876000Y-93799500D01*
X149876000Y-93811270D01*
X149856315Y-93878309D01*
X149839681Y-93898951D01*
X149400450Y-94338181D01*
X149339127Y-94371666D01*
X149312769Y-94374500D01*
X148177129Y-94374500D01*
X148177123Y-94374501D01*
X148117516Y-94380908D01*
X147982671Y-94431202D01*
X147982664Y-94431206D01*
X147867455Y-94517452D01*
X147867452Y-94517455D01*
X147781206Y-94632664D01*
X147781202Y-94632671D01*
X147730908Y-94767517D01*
X147724501Y-94827116D01*
X147724500Y-94827135D01*
X147724500Y-96622870D01*
X147724501Y-96622876D01*
X147730908Y-96682483D01*
X147781202Y-96817328D01*
X147781206Y-96817335D01*
X147818994Y-96867812D01*
X147867454Y-96932546D01*
X147923812Y-96974735D01*
X147965682Y-97030668D01*
X147973500Y-97074001D01*
X147973500Y-97629910D01*
X147953815Y-97696949D01*
X147901011Y-97742704D01*
X147836899Y-97753268D01*
X147800012Y-97749500D01*
X147199998Y-97749500D01*
X147199980Y-97749501D01*
X147097203Y-97760000D01*
X147097200Y-97760001D01*
X146930668Y-97815185D01*
X146930663Y-97815187D01*
X146781342Y-97907289D01*
X146657288Y-98031343D01*
X146657283Y-98031349D01*
X146655241Y-98034661D01*
X146653247Y-98036453D01*
X146652807Y-98037011D01*
X146652711Y-98036935D01*
X146603291Y-98081383D01*
X146534328Y-98092602D01*
X146470247Y-98064755D01*
X146444168Y-98034656D01*
X146442319Y-98031659D01*
X146442316Y-98031655D01*
X146318345Y-97907684D01*
X146169124Y-97815643D01*
X146169119Y-97815641D01*
X146002697Y-97760494D01*
X146002690Y-97760493D01*
X145899986Y-97750000D01*
X145850000Y-97750000D01*
X145850000Y-100199999D01*
X145899972Y-100199999D01*
X145899986Y-100199998D01*
X146002697Y-100189505D01*
X146169119Y-100134358D01*
X146169124Y-100134356D01*
X146318345Y-100042315D01*
X146442318Y-99918342D01*
X146444165Y-99915348D01*
X146445969Y-99913724D01*
X146446798Y-99912677D01*
X146446976Y-99912818D01*
X146496110Y-99868621D01*
X146565073Y-99857396D01*
X146629156Y-99885236D01*
X146655243Y-99915341D01*
X146657288Y-99918656D01*
X146781344Y-100042712D01*
X146930666Y-100134814D01*
X147097203Y-100189999D01*
X147199991Y-100200500D01*
X147800008Y-100200499D01*
X147853462Y-100195038D01*
X147922152Y-100207807D01*
X147973037Y-100255687D01*
X147987679Y-100294203D01*
X148002340Y-100367908D01*
X148002343Y-100367917D01*
X148058914Y-100504491D01*
X148058916Y-100504495D01*
X148071165Y-100522827D01*
X148089314Y-100549990D01*
X148141049Y-100627418D01*
X148141052Y-100627421D01*
X148638181Y-101124549D01*
X148671666Y-101185872D01*
X148674500Y-101212230D01*
X148674500Y-101451887D01*
X148689474Y-101565616D01*
X148689475Y-101565620D01*
X148748090Y-101707132D01*
X148748091Y-101707134D01*
X148748092Y-101707135D01*
X148841341Y-101828659D01*
X148962865Y-101921908D01*
X149104383Y-101980526D01*
X149212363Y-101994742D01*
X149214314Y-101994999D01*
X149218120Y-101995500D01*
X149218127Y-101995500D01*
X149781873Y-101995500D01*
X149781880Y-101995500D01*
X149895617Y-101980526D01*
X150037135Y-101921908D01*
X150158659Y-101828659D01*
X150251908Y-101707135D01*
X150310526Y-101565617D01*
X150325500Y-101451880D01*
X150325500Y-101451848D01*
X150580001Y-101451848D01*
X150594961Y-101565486D01*
X150653529Y-101706884D01*
X150746697Y-101828302D01*
X150868115Y-101921470D01*
X151009513Y-101980038D01*
X151123150Y-101994999D01*
X151655000Y-101994999D01*
X151686849Y-101994999D01*
X151800486Y-101980038D01*
X151941884Y-101921470D01*
X152063302Y-101828302D01*
X152156470Y-101706884D01*
X152215038Y-101565487D01*
X152215038Y-101565486D01*
X152229999Y-101451856D01*
X152230000Y-101451842D01*
X152230000Y-101175000D01*
X151655000Y-101175000D01*
X151655000Y-101994999D01*
X151123150Y-101994999D01*
X151155000Y-101994998D01*
X151155000Y-101175000D01*
X150580001Y-101175000D01*
X150580001Y-101451848D01*
X150325500Y-101451848D01*
X150325500Y-100398120D01*
X150310526Y-100284383D01*
X150265012Y-100174501D01*
X150251909Y-100142867D01*
X150251908Y-100142866D01*
X150251908Y-100142865D01*
X150158659Y-100021341D01*
X150158657Y-100021340D01*
X150158657Y-100021339D01*
X150122214Y-99993376D01*
X150110792Y-99977734D01*
X150095728Y-99965554D01*
X150090611Y-99950095D01*
X150081011Y-99936948D01*
X150079859Y-99917612D01*
X150073772Y-99899223D01*
X150077824Y-99883454D01*
X150076856Y-99867202D01*
X150086340Y-99850312D01*
X150091162Y-99831552D01*
X150106677Y-99814099D01*
X150111068Y-99806282D01*
X150113353Y-99804107D01*
X150117606Y-99800159D01*
X150158659Y-99768659D01*
X150176235Y-99745752D01*
X150183897Y-99738643D01*
X150206184Y-99727532D01*
X150226294Y-99712848D01*
X150236907Y-99712215D01*
X150246427Y-99707470D01*
X150271185Y-99710173D01*
X150296040Y-99708692D01*
X150305474Y-99713916D01*
X150315884Y-99715053D01*
X150334051Y-99729741D01*
X150355925Y-99741855D01*
X150420963Y-99806893D01*
X150420972Y-99806900D01*
X150441586Y-99819091D01*
X150558358Y-99888150D01*
X150621926Y-99906618D01*
X150680811Y-99944223D01*
X150710018Y-100007696D01*
X150700272Y-100076882D01*
X150685708Y-100101179D01*
X150653529Y-100143116D01*
X150594961Y-100284512D01*
X150594961Y-100284513D01*
X150580000Y-100398143D01*
X150580000Y-100675000D01*
X152229999Y-100675000D01*
X152229999Y-100398151D01*
X152215038Y-100284513D01*
X152156470Y-100143115D01*
X152063302Y-100021697D01*
X152011915Y-99982266D01*
X151970712Y-99925838D01*
X151966557Y-99856092D01*
X151999718Y-99796210D01*
X152101898Y-99694031D01*
X152183150Y-99556642D01*
X152227681Y-99403363D01*
X152230500Y-99367546D01*
X152230500Y-98922317D01*
X152233184Y-98910561D01*
X152232151Y-98902152D01*
X152239149Y-98884434D01*
X152242788Y-98868499D01*
X152246564Y-98860660D01*
X152280084Y-98810495D01*
X152336102Y-98675256D01*
X152336659Y-98673912D01*
X152341951Y-98647310D01*
X152365499Y-98528921D01*
X152365500Y-98528918D01*
X152365500Y-97452533D01*
X158450000Y-97452533D01*
X158450000Y-97747466D01*
X158450001Y-97747483D01*
X158488496Y-98039884D01*
X158488499Y-98039897D01*
X158564835Y-98324790D01*
X158564838Y-98324800D01*
X158677704Y-98597281D01*
X158677709Y-98597292D01*
X158825174Y-98852707D01*
X158825180Y-98852715D01*
X158941777Y-99004667D01*
X160022420Y-97924023D01*
X160035359Y-97955258D01*
X160117437Y-98078097D01*
X160221903Y-98182563D01*
X160344742Y-98264641D01*
X160375975Y-98277578D01*
X159295331Y-99358221D01*
X159447284Y-99474819D01*
X159447292Y-99474825D01*
X159702707Y-99622290D01*
X159702718Y-99622295D01*
X159975199Y-99735161D01*
X159975209Y-99735164D01*
X160260102Y-99811500D01*
X160260115Y-99811503D01*
X160552516Y-99849998D01*
X160552534Y-99850000D01*
X160847466Y-99850000D01*
X160847483Y-99849998D01*
X161139884Y-99811503D01*
X161139897Y-99811500D01*
X161424790Y-99735164D01*
X161424800Y-99735161D01*
X161697281Y-99622295D01*
X161697292Y-99622290D01*
X161952707Y-99474825D01*
X161952725Y-99474813D01*
X162104667Y-99358222D01*
X162104667Y-99358220D01*
X161024024Y-98277578D01*
X161055258Y-98264641D01*
X161178097Y-98182563D01*
X161282563Y-98078097D01*
X161364641Y-97955258D01*
X161377578Y-97924024D01*
X162458220Y-99004667D01*
X162458222Y-99004667D01*
X162574813Y-98852725D01*
X162574825Y-98852707D01*
X162722290Y-98597292D01*
X162722295Y-98597281D01*
X162835161Y-98324800D01*
X162835164Y-98324790D01*
X162911500Y-98039897D01*
X162911503Y-98039884D01*
X162949998Y-97747483D01*
X162950000Y-97747466D01*
X162950000Y-97452533D01*
X162949999Y-97452524D01*
X162948305Y-97439656D01*
X162948305Y-97439653D01*
X162946709Y-97427533D01*
X166450000Y-97427533D01*
X166450000Y-97722466D01*
X166450001Y-97722483D01*
X166488496Y-98014884D01*
X166488499Y-98014897D01*
X166564835Y-98299790D01*
X166564838Y-98299800D01*
X166677704Y-98572281D01*
X166677709Y-98572292D01*
X166825174Y-98827707D01*
X166825180Y-98827715D01*
X166941777Y-98979667D01*
X168022421Y-97899024D01*
X168035359Y-97930258D01*
X168117437Y-98053097D01*
X168221903Y-98157563D01*
X168344742Y-98239641D01*
X168375975Y-98252578D01*
X167295331Y-99333221D01*
X167447284Y-99449819D01*
X167447292Y-99449825D01*
X167702707Y-99597290D01*
X167702718Y-99597295D01*
X167975199Y-99710161D01*
X167975209Y-99710164D01*
X168260102Y-99786500D01*
X168260115Y-99786503D01*
X168552516Y-99824998D01*
X168552534Y-99825000D01*
X168847466Y-99825000D01*
X168847483Y-99824998D01*
X169139884Y-99786503D01*
X169139897Y-99786500D01*
X169424790Y-99710164D01*
X169424800Y-99710161D01*
X169697281Y-99597295D01*
X169697292Y-99597290D01*
X169952707Y-99449825D01*
X169952725Y-99449813D01*
X170104667Y-99333222D01*
X170104667Y-99333220D01*
X169024024Y-98252578D01*
X169055258Y-98239641D01*
X169178097Y-98157563D01*
X169282563Y-98053097D01*
X169364641Y-97930258D01*
X169377578Y-97899025D01*
X170458220Y-98979667D01*
X170458222Y-98979667D01*
X170574813Y-98827725D01*
X170574825Y-98827707D01*
X170722290Y-98572292D01*
X170722295Y-98572281D01*
X170835161Y-98299800D01*
X170835164Y-98299790D01*
X170911500Y-98014897D01*
X170911503Y-98014884D01*
X170949998Y-97722483D01*
X170950000Y-97722466D01*
X170950000Y-97427533D01*
X170949998Y-97427516D01*
X170911503Y-97135115D01*
X170911500Y-97135102D01*
X170835164Y-96850209D01*
X170835161Y-96850199D01*
X170722295Y-96577718D01*
X170722290Y-96577707D01*
X170574825Y-96322292D01*
X170574819Y-96322284D01*
X170458221Y-96170331D01*
X169377578Y-97250974D01*
X169364641Y-97219742D01*
X169282563Y-97096903D01*
X169178097Y-96992437D01*
X169055258Y-96910359D01*
X169024024Y-96897421D01*
X170104667Y-95816777D01*
X169952715Y-95700180D01*
X169952707Y-95700174D01*
X169697292Y-95552709D01*
X169697281Y-95552704D01*
X169424800Y-95439838D01*
X169424790Y-95439835D01*
X169139897Y-95363499D01*
X169139884Y-95363496D01*
X168847483Y-95325001D01*
X168847466Y-95325000D01*
X168552534Y-95325000D01*
X168552516Y-95325001D01*
X168260115Y-95363496D01*
X168260102Y-95363499D01*
X167975209Y-95439835D01*
X167975199Y-95439838D01*
X167702718Y-95552704D01*
X167702707Y-95552709D01*
X167447292Y-95700174D01*
X167447276Y-95700185D01*
X167295331Y-95816775D01*
X167295331Y-95816777D01*
X168375975Y-96897421D01*
X168344742Y-96910359D01*
X168221903Y-96992437D01*
X168117437Y-97096903D01*
X168035359Y-97219742D01*
X168022421Y-97250974D01*
X166941777Y-96170331D01*
X166941775Y-96170331D01*
X166825185Y-96322276D01*
X166825174Y-96322292D01*
X166677709Y-96577707D01*
X166677704Y-96577718D01*
X166564838Y-96850199D01*
X166564835Y-96850209D01*
X166488499Y-97135102D01*
X166488496Y-97135115D01*
X166450001Y-97427516D01*
X166450000Y-97427533D01*
X162946709Y-97427533D01*
X162911503Y-97160115D01*
X162911500Y-97160102D01*
X162835164Y-96875209D01*
X162835161Y-96875199D01*
X162722295Y-96602718D01*
X162722290Y-96602707D01*
X162574825Y-96347292D01*
X162574819Y-96347284D01*
X162458221Y-96195331D01*
X161377578Y-97275974D01*
X161364641Y-97244742D01*
X161282563Y-97121903D01*
X161178097Y-97017437D01*
X161055258Y-96935359D01*
X161024024Y-96922421D01*
X162104667Y-95841777D01*
X161952715Y-95725180D01*
X161952707Y-95725174D01*
X161697292Y-95577709D01*
X161697281Y-95577704D01*
X161424800Y-95464838D01*
X161424790Y-95464835D01*
X161139897Y-95388499D01*
X161139884Y-95388496D01*
X160847483Y-95350001D01*
X160847466Y-95350000D01*
X160552534Y-95350000D01*
X160552516Y-95350001D01*
X160260115Y-95388496D01*
X160260102Y-95388499D01*
X159975209Y-95464835D01*
X159975199Y-95464838D01*
X159702718Y-95577704D01*
X159702707Y-95577709D01*
X159447292Y-95725174D01*
X159447276Y-95725185D01*
X159295331Y-95841775D01*
X159295331Y-95841777D01*
X160375975Y-96922421D01*
X160344742Y-96935359D01*
X160221903Y-97017437D01*
X160117437Y-97121903D01*
X160035359Y-97244742D01*
X160022421Y-97275975D01*
X158941777Y-96195331D01*
X158941775Y-96195331D01*
X158825185Y-96347276D01*
X158825174Y-96347292D01*
X158677709Y-96602707D01*
X158677704Y-96602718D01*
X158564838Y-96875199D01*
X158564835Y-96875209D01*
X158488499Y-97160102D01*
X158488496Y-97160115D01*
X158450001Y-97452516D01*
X158450000Y-97452533D01*
X152365500Y-97452533D01*
X152365500Y-96912220D01*
X152385185Y-96845181D01*
X152416614Y-96811902D01*
X152494792Y-96755104D01*
X152645104Y-96604792D01*
X152645106Y-96604788D01*
X152645109Y-96604786D01*
X152770048Y-96432820D01*
X152770047Y-96432820D01*
X152770051Y-96432816D01*
X152866557Y-96243412D01*
X152932246Y-96041243D01*
X152934011Y-96030100D01*
X152963942Y-95966966D01*
X153023254Y-95930036D01*
X153056484Y-95925500D01*
X153962770Y-95925500D01*
X154029809Y-95945185D01*
X154050451Y-95961819D01*
X154106344Y-96017712D01*
X154255666Y-96109814D01*
X154422203Y-96164999D01*
X154524991Y-96175500D01*
X155575008Y-96175499D01*
X155575016Y-96175498D01*
X155575019Y-96175498D01*
X155631302Y-96169748D01*
X155677797Y-96164999D01*
X155844334Y-96109814D01*
X155993656Y-96017712D01*
X156117712Y-95893656D01*
X156209814Y-95744334D01*
X156264999Y-95577797D01*
X156275500Y-95475009D01*
X156275499Y-94874992D01*
X156270608Y-94827116D01*
X156264999Y-94772203D01*
X156264998Y-94772200D01*
X156263446Y-94767517D01*
X156209814Y-94605666D01*
X156117712Y-94456344D01*
X155993656Y-94332288D01*
X155990819Y-94330538D01*
X155989283Y-94328830D01*
X155987989Y-94327807D01*
X155988163Y-94327585D01*
X155944096Y-94278594D01*
X155932872Y-94209632D01*
X155960713Y-94145549D01*
X155971544Y-94134130D01*
X155980460Y-94125850D01*
X155993656Y-94117712D01*
X156051179Y-94060188D01*
X156052858Y-94058630D01*
X156082158Y-94044012D01*
X156110872Y-94028334D01*
X156114332Y-94027961D01*
X156115379Y-94027440D01*
X156117270Y-94027646D01*
X156137230Y-94025500D01*
X162325501Y-94025500D01*
X162392540Y-94045185D01*
X162438295Y-94097989D01*
X162449501Y-94149500D01*
X162449501Y-95372876D01*
X162455908Y-95432483D01*
X162506202Y-95567328D01*
X162506206Y-95567335D01*
X162592452Y-95682544D01*
X162592455Y-95682547D01*
X162707664Y-95768793D01*
X162707671Y-95768797D01*
X162842517Y-95819091D01*
X162842516Y-95819091D01*
X162849444Y-95819835D01*
X162902127Y-95825500D01*
X166497872Y-95825499D01*
X166557483Y-95819091D01*
X166692331Y-95768796D01*
X166807546Y-95682546D01*
X166893796Y-95567331D01*
X166944091Y-95432483D01*
X166950500Y-95372873D01*
X166950499Y-91777128D01*
X166944091Y-91717517D01*
X166941347Y-91710161D01*
X166893797Y-91582671D01*
X166893793Y-91582664D01*
X166807547Y-91467455D01*
X166807544Y-91467452D01*
X166692335Y-91381206D01*
X166692330Y-91381203D01*
X166679588Y-91376451D01*
X166679587Y-91376450D01*
X166557482Y-91330908D01*
X166557483Y-91330908D01*
X166497883Y-91324501D01*
X166497881Y-91324500D01*
X166497873Y-91324500D01*
X166497864Y-91324500D01*
X162902129Y-91324500D01*
X162902123Y-91324501D01*
X162842516Y-91330908D01*
X162707671Y-91381202D01*
X162707664Y-91381206D01*
X162592455Y-91467452D01*
X162592452Y-91467455D01*
X162506206Y-91582664D01*
X162506202Y-91582671D01*
X162455908Y-91717517D01*
X162449501Y-91777116D01*
X162449501Y-91777123D01*
X162449500Y-91777135D01*
X162449500Y-92400500D01*
X162429815Y-92467539D01*
X162377011Y-92513294D01*
X162325500Y-92524500D01*
X156137230Y-92524500D01*
X156070191Y-92504815D01*
X156049549Y-92488181D01*
X155993657Y-92432289D01*
X155993656Y-92432288D01*
X155886519Y-92366206D01*
X155844336Y-92340187D01*
X155844331Y-92340185D01*
X155842862Y-92339698D01*
X155677797Y-92285001D01*
X155677795Y-92285000D01*
X155575010Y-92274500D01*
X154524998Y-92274500D01*
X154524980Y-92274501D01*
X154422203Y-92285000D01*
X154422200Y-92285001D01*
X154255668Y-92340185D01*
X154255663Y-92340187D01*
X154106342Y-92432289D01*
X153982289Y-92556342D01*
X153890187Y-92705663D01*
X153890186Y-92705666D01*
X153835001Y-92872203D01*
X153835001Y-92872204D01*
X153835000Y-92872204D01*
X153824500Y-92974983D01*
X153824500Y-93575001D01*
X153824501Y-93575019D01*
X153835000Y-93677796D01*
X153835001Y-93677799D01*
X153890185Y-93844331D01*
X153890187Y-93844336D01*
X153982289Y-93993657D01*
X154106346Y-94117714D01*
X154109182Y-94119463D01*
X154110717Y-94121170D01*
X154112011Y-94122193D01*
X154111836Y-94122414D01*
X154155905Y-94171411D01*
X154167126Y-94240374D01*
X154139282Y-94304456D01*
X154128456Y-94315869D01*
X154119536Y-94324150D01*
X154106344Y-94332288D01*
X154048821Y-94389810D01*
X154047143Y-94391369D01*
X154017851Y-94405981D01*
X153989128Y-94421666D01*
X153985665Y-94422038D01*
X153984622Y-94422559D01*
X153982734Y-94422353D01*
X153962770Y-94424500D01*
X152091078Y-94424500D01*
X152055642Y-94431549D01*
X151993132Y-94427863D01*
X151931243Y-94407753D01*
X151749993Y-94379046D01*
X151721287Y-94374500D01*
X151508713Y-94374500D01*
X151503841Y-94374500D01*
X151503841Y-94372900D01*
X151442329Y-94359965D01*
X151392582Y-94310903D01*
X151377000Y-94250723D01*
X151377000Y-93674999D01*
X151652500Y-93674999D01*
X151684349Y-93674999D01*
X151797986Y-93660038D01*
X151939384Y-93601470D01*
X152060802Y-93508302D01*
X152153970Y-93386884D01*
X152212538Y-93245487D01*
X152212538Y-93245486D01*
X152227499Y-93131856D01*
X152227500Y-93131842D01*
X152227500Y-92855000D01*
X151652500Y-92855000D01*
X151652500Y-93674999D01*
X151377000Y-93674999D01*
X151377000Y-92681862D01*
X151396685Y-92614823D01*
X151402500Y-92607606D01*
X151402500Y-92479000D01*
X151422185Y-92411961D01*
X151474989Y-92366206D01*
X151526500Y-92355000D01*
X152227499Y-92355000D01*
X152227499Y-92078151D01*
X152212538Y-91964513D01*
X152153970Y-91823115D01*
X152060802Y-91701697D01*
X152009415Y-91662266D01*
X151968212Y-91605838D01*
X151964057Y-91536092D01*
X151997218Y-91476210D01*
X152099398Y-91374031D01*
X152180650Y-91236642D01*
X152225181Y-91083363D01*
X152228000Y-91047546D01*
X152228000Y-90042454D01*
X152225181Y-90006637D01*
X152180650Y-89853358D01*
X152104213Y-89724110D01*
X152099400Y-89715972D01*
X152099393Y-89715963D01*
X152020707Y-89637277D01*
X151987222Y-89575954D01*
X151992206Y-89506262D01*
X152018463Y-89464218D01*
X152053293Y-89427533D01*
X158450000Y-89427533D01*
X158450000Y-89722466D01*
X158450001Y-89722483D01*
X158488496Y-90014884D01*
X158488499Y-90014897D01*
X158564835Y-90299790D01*
X158564838Y-90299800D01*
X158677704Y-90572281D01*
X158677709Y-90572292D01*
X158825174Y-90827707D01*
X158825180Y-90827715D01*
X158941777Y-90979667D01*
X160022420Y-89899023D01*
X160035359Y-89930258D01*
X160117437Y-90053097D01*
X160221903Y-90157563D01*
X160344742Y-90239641D01*
X160375975Y-90252578D01*
X159295331Y-91333221D01*
X159447284Y-91449819D01*
X159447292Y-91449825D01*
X159702707Y-91597290D01*
X159702718Y-91597295D01*
X159975199Y-91710161D01*
X159975209Y-91710164D01*
X160260102Y-91786500D01*
X160260115Y-91786503D01*
X160552516Y-91824998D01*
X160552534Y-91825000D01*
X160847466Y-91825000D01*
X160847483Y-91824998D01*
X161139884Y-91786503D01*
X161139897Y-91786500D01*
X161424790Y-91710164D01*
X161424800Y-91710161D01*
X161697281Y-91597295D01*
X161697292Y-91597290D01*
X161952707Y-91449825D01*
X161952725Y-91449813D01*
X162104667Y-91333222D01*
X162104667Y-91333220D01*
X161024024Y-90252578D01*
X161055258Y-90239641D01*
X161178097Y-90157563D01*
X161282563Y-90053097D01*
X161364641Y-89930258D01*
X161377578Y-89899024D01*
X162458220Y-90979667D01*
X162458222Y-90979667D01*
X162574813Y-90827725D01*
X162574825Y-90827707D01*
X162722290Y-90572292D01*
X162722295Y-90572281D01*
X162835161Y-90299800D01*
X162835164Y-90299790D01*
X162911500Y-90014897D01*
X162911503Y-90014884D01*
X162949998Y-89722483D01*
X162950000Y-89722466D01*
X162950000Y-89427533D01*
X162949999Y-89427524D01*
X162948305Y-89414656D01*
X162948305Y-89414653D01*
X162946709Y-89402533D01*
X166450000Y-89402533D01*
X166450000Y-89697466D01*
X166450001Y-89697483D01*
X166488496Y-89989884D01*
X166488499Y-89989897D01*
X166564835Y-90274790D01*
X166564838Y-90274800D01*
X166677704Y-90547281D01*
X166677709Y-90547292D01*
X166825174Y-90802707D01*
X166825180Y-90802715D01*
X166941777Y-90954667D01*
X168022421Y-89874024D01*
X168035359Y-89905258D01*
X168117437Y-90028097D01*
X168221903Y-90132563D01*
X168344742Y-90214641D01*
X168375975Y-90227578D01*
X167295331Y-91308221D01*
X167447284Y-91424819D01*
X167447292Y-91424825D01*
X167702707Y-91572290D01*
X167702718Y-91572295D01*
X167975199Y-91685161D01*
X167975209Y-91685164D01*
X168260102Y-91761500D01*
X168260115Y-91761503D01*
X168552516Y-91799998D01*
X168552534Y-91800000D01*
X168847466Y-91800000D01*
X168847483Y-91799998D01*
X169139884Y-91761503D01*
X169139897Y-91761500D01*
X169424790Y-91685164D01*
X169424800Y-91685161D01*
X169697281Y-91572295D01*
X169697292Y-91572290D01*
X169952707Y-91424825D01*
X169952725Y-91424813D01*
X170104667Y-91308222D01*
X170104667Y-91308220D01*
X169024024Y-90227578D01*
X169055258Y-90214641D01*
X169178097Y-90132563D01*
X169282563Y-90028097D01*
X169364641Y-89905258D01*
X169377578Y-89874025D01*
X170458220Y-90954667D01*
X170458222Y-90954667D01*
X170574813Y-90802725D01*
X170574825Y-90802707D01*
X170722290Y-90547292D01*
X170722295Y-90547281D01*
X170835161Y-90274800D01*
X170835164Y-90274790D01*
X170911500Y-89989897D01*
X170911503Y-89989884D01*
X170949998Y-89697483D01*
X170950000Y-89697466D01*
X170950000Y-89402533D01*
X170949998Y-89402516D01*
X170911503Y-89110115D01*
X170911500Y-89110102D01*
X170835164Y-88825209D01*
X170835161Y-88825199D01*
X170722295Y-88552718D01*
X170722290Y-88552707D01*
X170574825Y-88297292D01*
X170574819Y-88297284D01*
X170458221Y-88145331D01*
X169377578Y-89225974D01*
X169364641Y-89194742D01*
X169282563Y-89071903D01*
X169178097Y-88967437D01*
X169055258Y-88885359D01*
X169024024Y-88872421D01*
X170104667Y-87791777D01*
X169952715Y-87675180D01*
X169952707Y-87675174D01*
X169697292Y-87527709D01*
X169697281Y-87527704D01*
X169424800Y-87414838D01*
X169424790Y-87414835D01*
X169139897Y-87338499D01*
X169139884Y-87338496D01*
X168847483Y-87300001D01*
X168847466Y-87300000D01*
X168552534Y-87300000D01*
X168552516Y-87300001D01*
X168260115Y-87338496D01*
X168260102Y-87338499D01*
X167975209Y-87414835D01*
X167975199Y-87414838D01*
X167702718Y-87527704D01*
X167702707Y-87527709D01*
X167447292Y-87675174D01*
X167447276Y-87675185D01*
X167295331Y-87791775D01*
X167295331Y-87791777D01*
X168375975Y-88872421D01*
X168344742Y-88885359D01*
X168221903Y-88967437D01*
X168117437Y-89071903D01*
X168035359Y-89194742D01*
X168022421Y-89225974D01*
X166941777Y-88145331D01*
X166941775Y-88145331D01*
X166825185Y-88297276D01*
X166825174Y-88297292D01*
X166677709Y-88552707D01*
X166677704Y-88552718D01*
X166564838Y-88825199D01*
X166564835Y-88825209D01*
X166488499Y-89110102D01*
X166488496Y-89110115D01*
X166450001Y-89402516D01*
X166450000Y-89402533D01*
X162946709Y-89402533D01*
X162911503Y-89135115D01*
X162911500Y-89135102D01*
X162835164Y-88850209D01*
X162835161Y-88850199D01*
X162722295Y-88577718D01*
X162722290Y-88577707D01*
X162574825Y-88322292D01*
X162574819Y-88322284D01*
X162458221Y-88170331D01*
X161377578Y-89250974D01*
X161364641Y-89219742D01*
X161282563Y-89096903D01*
X161178097Y-88992437D01*
X161055258Y-88910359D01*
X161024024Y-88897421D01*
X162104667Y-87816777D01*
X161952715Y-87700180D01*
X161952707Y-87700174D01*
X161697292Y-87552709D01*
X161697281Y-87552704D01*
X161424800Y-87439838D01*
X161424790Y-87439835D01*
X161139897Y-87363499D01*
X161139884Y-87363496D01*
X160847483Y-87325001D01*
X160847466Y-87325000D01*
X160552534Y-87325000D01*
X160552516Y-87325001D01*
X160260115Y-87363496D01*
X160260102Y-87363499D01*
X159975209Y-87439835D01*
X159975199Y-87439838D01*
X159702718Y-87552704D01*
X159702707Y-87552709D01*
X159447292Y-87700174D01*
X159447276Y-87700185D01*
X159295331Y-87816775D01*
X159295331Y-87816777D01*
X160375975Y-88897421D01*
X160344742Y-88910359D01*
X160221903Y-88992437D01*
X160117437Y-89096903D01*
X160035359Y-89219742D01*
X160022421Y-89250975D01*
X158941777Y-88170331D01*
X158941775Y-88170331D01*
X158825185Y-88322276D01*
X158825174Y-88322292D01*
X158677709Y-88577707D01*
X158677704Y-88577718D01*
X158564838Y-88850199D01*
X158564835Y-88850209D01*
X158488499Y-89135102D01*
X158488496Y-89135115D01*
X158450001Y-89427516D01*
X158450000Y-89427533D01*
X152053293Y-89427533D01*
X152133725Y-89342816D01*
X152168970Y-89296884D01*
X152227538Y-89155487D01*
X152227538Y-89155486D01*
X152242499Y-89041856D01*
X152242500Y-89041842D01*
X152242500Y-88765000D01*
X150592501Y-88765000D01*
X150592501Y-89041848D01*
X150607461Y-89155486D01*
X150666028Y-89296881D01*
X150676650Y-89310724D01*
X150701843Y-89375894D01*
X150687804Y-89444339D01*
X150638990Y-89494328D01*
X150612869Y-89505286D01*
X150555861Y-89521848D01*
X150555857Y-89521850D01*
X150418472Y-89603099D01*
X150418467Y-89603103D01*
X150353425Y-89668145D01*
X150344729Y-89672892D01*
X150338684Y-89680742D01*
X150314570Y-89689360D01*
X150292101Y-89701629D01*
X150282220Y-89700922D01*
X150272890Y-89704257D01*
X150247946Y-89698470D01*
X150222410Y-89696644D01*
X150212664Y-89690286D01*
X150204827Y-89688468D01*
X150189551Y-89675207D01*
X150176866Y-89666931D01*
X150171796Y-89661720D01*
X150156159Y-89641341D01*
X150139631Y-89628658D01*
X150133370Y-89622223D01*
X150121076Y-89598955D01*
X150105559Y-89577704D01*
X150105013Y-89568552D01*
X150100731Y-89560446D01*
X150102968Y-89534226D01*
X150101404Y-89507958D01*
X150105893Y-89499963D01*
X150106673Y-89490829D01*
X150122730Y-89469981D01*
X150135615Y-89447038D01*
X150146756Y-89437383D01*
X150171159Y-89418659D01*
X150264408Y-89297135D01*
X150323026Y-89155617D01*
X150338000Y-89041880D01*
X150338000Y-87988120D01*
X150323026Y-87874383D01*
X150273953Y-87755909D01*
X150264409Y-87732867D01*
X150264408Y-87732866D01*
X150264408Y-87732865D01*
X150171159Y-87611341D01*
X150171157Y-87611340D01*
X150171157Y-87611339D01*
X150134714Y-87583376D01*
X150123292Y-87567734D01*
X150108228Y-87555554D01*
X150103111Y-87540095D01*
X150093511Y-87526948D01*
X150092359Y-87507612D01*
X150086272Y-87489223D01*
X150090324Y-87473454D01*
X150089356Y-87457202D01*
X150098840Y-87440312D01*
X150103662Y-87421552D01*
X150119177Y-87404099D01*
X150123568Y-87396282D01*
X150125853Y-87394107D01*
X150130106Y-87390159D01*
X150171159Y-87358659D01*
X150188735Y-87335752D01*
X150196397Y-87328643D01*
X150218684Y-87317532D01*
X150238794Y-87302848D01*
X150249407Y-87302215D01*
X150258927Y-87297470D01*
X150283685Y-87300173D01*
X150308540Y-87298692D01*
X150317974Y-87303916D01*
X150328384Y-87305053D01*
X150346551Y-87319741D01*
X150368425Y-87331855D01*
X150433463Y-87396893D01*
X150433472Y-87396900D01*
X150445645Y-87404099D01*
X150570858Y-87478150D01*
X150634426Y-87496618D01*
X150693311Y-87534223D01*
X150722518Y-87597696D01*
X150712772Y-87666882D01*
X150698208Y-87691179D01*
X150666029Y-87733116D01*
X150607461Y-87874512D01*
X150607461Y-87874513D01*
X150592500Y-87988143D01*
X150592500Y-88265000D01*
X152242499Y-88265000D01*
X152242499Y-87988149D01*
X152228383Y-87880923D01*
X152228382Y-87880919D01*
X152227538Y-87874512D01*
X152168970Y-87733115D01*
X152075802Y-87611697D01*
X152024415Y-87572266D01*
X151983212Y-87515838D01*
X151979057Y-87446092D01*
X152012218Y-87386210D01*
X152114398Y-87284031D01*
X152195650Y-87146642D01*
X152240181Y-86993363D01*
X152243000Y-86957546D01*
X152243000Y-85952454D01*
X152240181Y-85916637D01*
X152195650Y-85763358D01*
X152114398Y-85625969D01*
X152114396Y-85625967D01*
X152114393Y-85625963D01*
X152001536Y-85513106D01*
X152001527Y-85513099D01*
X151864142Y-85431850D01*
X151710863Y-85387319D01*
X151710861Y-85387318D01*
X151710857Y-85387318D01*
X151675051Y-85384500D01*
X151675046Y-85384500D01*
X150759954Y-85384500D01*
X150759948Y-85384500D01*
X150724142Y-85387318D01*
X150724137Y-85387319D01*
X150570857Y-85431850D01*
X150433472Y-85513099D01*
X150433467Y-85513103D01*
X150368425Y-85578145D01*
X150307101Y-85611629D01*
X150237410Y-85606644D01*
X150182369Y-85565950D01*
X150178182Y-85560494D01*
X150171159Y-85551341D01*
X150049635Y-85458092D01*
X150049634Y-85458091D01*
X150049632Y-85458090D01*
X149908120Y-85399475D01*
X149908118Y-85399474D01*
X149908117Y-85399474D01*
X149893899Y-85397602D01*
X149794387Y-85384500D01*
X149794380Y-85384500D01*
X149230620Y-85384500D01*
X149230612Y-85384500D01*
X149116883Y-85399474D01*
X149116879Y-85399475D01*
X148975367Y-85458090D01*
X148853841Y-85551341D01*
X148760590Y-85672867D01*
X148701975Y-85814379D01*
X148701974Y-85814383D01*
X148687000Y-85928112D01*
X148687000Y-86981887D01*
X148701974Y-87095616D01*
X148701975Y-87095620D01*
X148760590Y-87237132D01*
X148760591Y-87237134D01*
X148760592Y-87237135D01*
X148853841Y-87358659D01*
X148890287Y-87386625D01*
X148931489Y-87443053D01*
X148935643Y-87512800D01*
X148901430Y-87573719D01*
X148890287Y-87583375D01*
X148853842Y-87611340D01*
X148760590Y-87732867D01*
X148701975Y-87874379D01*
X148701974Y-87874383D01*
X148687000Y-87988112D01*
X148687000Y-88227769D01*
X148678355Y-88257209D01*
X148671832Y-88287196D01*
X148668077Y-88292211D01*
X148667315Y-88294808D01*
X148650681Y-88315450D01*
X148537180Y-88428951D01*
X148475857Y-88462436D01*
X148406165Y-88457452D01*
X148350232Y-88415580D01*
X148325815Y-88350116D01*
X148325499Y-88341270D01*
X148325499Y-88099998D01*
X148325498Y-88099981D01*
X148314999Y-87997203D01*
X148314998Y-87997200D01*
X148311989Y-87988120D01*
X148259814Y-87830666D01*
X148167712Y-87681344D01*
X148043656Y-87557288D01*
X147938343Y-87492331D01*
X147894336Y-87465187D01*
X147894331Y-87465185D01*
X147870240Y-87457202D01*
X147727797Y-87410001D01*
X147727795Y-87410000D01*
X147625016Y-87399500D01*
X147625009Y-87399500D01*
X147094658Y-87399500D01*
X147047209Y-87390062D01*
X147018913Y-87378342D01*
X147018909Y-87378341D01*
X147018906Y-87378340D01*
X146873920Y-87349500D01*
X146873918Y-87349500D01*
X145690638Y-87349500D01*
X145623599Y-87329815D01*
X145585099Y-87290597D01*
X145517712Y-87181344D01*
X145393656Y-87057288D01*
X145300777Y-87000000D01*
X145244336Y-86965187D01*
X145244331Y-86965185D01*
X145221257Y-86957539D01*
X145077797Y-86910001D01*
X145077795Y-86910000D01*
X144975010Y-86899500D01*
X144224998Y-86899500D01*
X144224980Y-86899501D01*
X144122203Y-86910000D01*
X144122200Y-86910001D01*
X143955668Y-86965185D01*
X143955663Y-86965187D01*
X143806342Y-87057289D01*
X143682285Y-87181346D01*
X143680537Y-87184182D01*
X143678829Y-87185717D01*
X143677807Y-87187011D01*
X143677585Y-87186836D01*
X143628589Y-87230905D01*
X143559626Y-87242126D01*
X143495544Y-87214282D01*
X143469463Y-87184182D01*
X143467714Y-87181346D01*
X143343657Y-87057289D01*
X143343656Y-87057288D01*
X143250777Y-87000000D01*
X143194336Y-86965187D01*
X143194331Y-86965185D01*
X143171257Y-86957539D01*
X143027797Y-86910001D01*
X143027795Y-86910000D01*
X142925010Y-86899500D01*
X142174998Y-86899500D01*
X142174980Y-86899501D01*
X142072203Y-86910000D01*
X142072200Y-86910001D01*
X141905668Y-86965185D01*
X141905663Y-86965187D01*
X141756342Y-87057289D01*
X141632289Y-87181342D01*
X141623979Y-87194815D01*
X141565578Y-87289500D01*
X141564901Y-87290597D01*
X141512953Y-87337321D01*
X141459362Y-87349500D01*
X140499000Y-87349500D01*
X140431961Y-87329815D01*
X140386206Y-87277011D01*
X140375000Y-87225500D01*
X140375000Y-87000000D01*
X139486500Y-87000000D01*
X139419461Y-86980315D01*
X139373706Y-86927511D01*
X139362500Y-86876000D01*
X139362500Y-86750000D01*
X139236500Y-86750000D01*
X139169461Y-86730315D01*
X139123706Y-86677511D01*
X139112500Y-86626000D01*
X139112500Y-86500000D01*
X139612500Y-86500000D01*
X140374999Y-86500000D01*
X140374999Y-86250028D01*
X140374998Y-86250013D01*
X140364505Y-86147302D01*
X140309358Y-85980880D01*
X140309356Y-85980875D01*
X140217315Y-85831654D01*
X140093345Y-85707684D01*
X139944124Y-85615643D01*
X139944119Y-85615641D01*
X139777697Y-85560494D01*
X139777690Y-85560493D01*
X139674986Y-85550000D01*
X139612500Y-85550000D01*
X139612500Y-86500000D01*
X139112500Y-86500000D01*
X139112500Y-85550000D01*
X139112499Y-85549999D01*
X139050028Y-85550000D01*
X139050011Y-85550001D01*
X138947302Y-85560494D01*
X138780880Y-85615641D01*
X138780875Y-85615643D01*
X138631657Y-85707682D01*
X138538034Y-85801305D01*
X138476710Y-85834789D01*
X138407019Y-85829805D01*
X138362672Y-85801304D01*
X138268657Y-85707289D01*
X138268656Y-85707288D01*
X138136816Y-85625969D01*
X138119336Y-85615187D01*
X138119331Y-85615185D01*
X138093556Y-85606644D01*
X137952797Y-85560001D01*
X137952795Y-85560000D01*
X137850010Y-85549500D01*
X137224998Y-85549500D01*
X137224980Y-85549501D01*
X137122203Y-85560000D01*
X137122200Y-85560001D01*
X136955668Y-85615185D01*
X136955663Y-85615187D01*
X136806342Y-85707289D01*
X136682289Y-85831342D01*
X136590187Y-85980663D01*
X136590185Y-85980668D01*
X136590115Y-85980880D01*
X136535001Y-86147203D01*
X136535001Y-86147204D01*
X136535000Y-86147204D01*
X136524500Y-86249983D01*
X136524500Y-86650270D01*
X136504815Y-86717309D01*
X136488181Y-86737951D01*
X135972951Y-87253181D01*
X135911628Y-87286666D01*
X135885270Y-87289500D01*
X134207487Y-87289500D01*
X134148058Y-87274331D01*
X134142330Y-87271203D01*
X134007482Y-87220908D01*
X134007483Y-87220908D01*
X133947883Y-87214501D01*
X133947881Y-87214500D01*
X133947873Y-87214500D01*
X133947865Y-87214500D01*
X133637229Y-87214500D01*
X133570190Y-87194815D01*
X133549548Y-87178181D01*
X132388421Y-86017052D01*
X132388414Y-86017046D01*
X132314729Y-85967812D01*
X132314729Y-85967813D01*
X132265491Y-85934913D01*
X132128917Y-85878343D01*
X132128907Y-85878340D01*
X131983920Y-85849500D01*
X131983918Y-85849500D01*
X130082791Y-85849500D01*
X130015752Y-85829815D01*
X129969997Y-85777011D01*
X129966609Y-85768833D01*
X129943797Y-85707671D01*
X129943793Y-85707664D01*
X129857547Y-85592455D01*
X129857544Y-85592452D01*
X129742335Y-85506206D01*
X129742328Y-85506202D01*
X129607482Y-85455908D01*
X129607483Y-85455908D01*
X129547883Y-85449501D01*
X129547881Y-85449500D01*
X129547873Y-85449500D01*
X129547864Y-85449500D01*
X128152129Y-85449500D01*
X128152123Y-85449501D01*
X128092516Y-85455908D01*
X127957671Y-85506202D01*
X127957664Y-85506206D01*
X127842455Y-85592452D01*
X127842452Y-85592455D01*
X127756206Y-85707664D01*
X127756202Y-85707671D01*
X127705908Y-85842517D01*
X127699501Y-85902116D01*
X127699500Y-85902135D01*
X120550000Y-85902135D01*
X120550000Y-84120557D01*
X120569685Y-84053518D01*
X120622489Y-84007763D01*
X120673508Y-83996558D01*
X171225511Y-83796945D01*
X171292627Y-83816365D01*
G37*
%TD.AperFunction*%
%TD*%
M02*
