M48
; DRILL file {KiCad 9.0.0} date 2026-06-29T14:57:31+0530
; FORMAT={-:-/ absolute / inch / decimal}
; #@! TF.CreationDate,2026-06-29T14:57:31+05:30
; #@! TF.GenerationSoftware,Kicad,Pcbnew,9.0.0
; #@! TF.FileFunction,Plated,1,2,PTH
FMAT,2
INCH
; #@! TA.AperFunction,Plated,PTH,ViaDrill
T1C0.0118
; #@! TA.AperFunction,Plated,PTH,ComponentDrill
T2C0.0394
; #@! TA.AperFunction,Plated,PTH,ComponentDrill
T3C0.0433
; #@! TA.AperFunction,Plated,PTH,ComponentDrill
T4C0.0512
; #@! TA.AperFunction,Plated,PTH,ComponentDrill
T5C0.0591
%
G90
G05
T1
X5.2574Y-3.6417
X5.4459Y-3.8012
X5.4459Y-3.9823
X5.623Y-3.811
X5.6742Y-4.0039
X5.8071Y-3.8967
X5.8857Y-3.6459
X5.8858Y-3.8923
X5.8863Y-3.4037
X5.8863Y-3.5642
X5.9534Y-3.4037
T2
X5.8691Y-3.7687
X5.9691Y-3.7687
T3
X6.4843Y-3.6841
T4
X4.9692Y-3.7382
X4.9692Y-3.935
T5
X6.3268Y-3.5266
X6.3268Y-3.8425
X6.6417Y-3.5256
X6.6417Y-3.8415
M30
