%TF.GenerationSoftware,KiCad,Pcbnew,9.0.0*%
%TF.CreationDate,2026-06-29T14:56:33+05:30*%
%TF.ProjectId,White_noise_generator,57686974-655f-46e6-9f69-73655f67656e,rev?*%
%TF.SameCoordinates,Original*%
%TF.FileFunction,Copper,L2,Bot*%
%TF.FilePolarity,Positive*%
%FSLAX46Y46*%
G04 Gerber Fmt 4.6, Leading zero omitted, Abs format (unit mm)*
G04 Created by KiCad (PCBNEW 9.0.0) date 2026-06-29 14:56:33*
%MOMM*%
%LPD*%
G01*
G04 APERTURE LIST*
G04 Aperture macros list*
%AMRoundRect*
0 Rectangle with rounded corners*
0 $1 Rounding radius*
0 $2 $3 $4 $5 $6 $7 $8 $9 X,Y pos of 4 corners*
0 Add a 4 corners polygon primitive as box body*
4,1,4,$2,$3,$4,$5,$6,$7,$8,$9,$2,$3,0*
0 Add four circle primitives for the rounded corners*
1,1,$1+$1,$2,$3*
1,1,$1+$1,$4,$5*
1,1,$1+$1,$6,$7*
1,1,$1+$1,$8,$9*
0 Add four rect primitives between the rounded corners*
20,1,$1+$1,$2,$3,$4,$5,0*
20,1,$1+$1,$4,$5,$6,$7,0*
20,1,$1+$1,$6,$7,$8,$9,0*
20,1,$1+$1,$8,$9,$2,$3,0*%
G04 Aperture macros list end*
%TA.AperFunction,ComponentPad*%
%ADD10R,3.500000X3.500000*%
%TD*%
%TA.AperFunction,ComponentPad*%
%ADD11C,3.500000*%
%TD*%
%TA.AperFunction,ComponentPad*%
%ADD12RoundRect,0.250001X1.149999X-1.149999X1.149999X1.149999X-1.149999X1.149999X-1.149999X-1.149999X0*%
%TD*%
%TA.AperFunction,ComponentPad*%
%ADD13C,2.800000*%
%TD*%
%TA.AperFunction,ComponentPad*%
%ADD14R,1.700000X1.700000*%
%TD*%
%TA.AperFunction,ComponentPad*%
%ADD15O,1.700000X1.700000*%
%TD*%
%TA.AperFunction,ViaPad*%
%ADD16C,0.600000*%
%TD*%
%TA.AperFunction,Conductor*%
%ADD17C,0.700000*%
%TD*%
%TA.AperFunction,Conductor*%
%ADD18C,0.500000*%
%TD*%
G04 APERTURE END LIST*
D10*
%TO.P,J1,1,In*%
%TO.N,Net-(J1-In)*%
X164700000Y-93575000D03*
D11*
%TO.P,J1,2,Ext*%
%TO.N,GND*%
X168700000Y-89550000D03*
X160700000Y-89575000D03*
X168700000Y-97575000D03*
X160700000Y-97600000D03*
%TD*%
D12*
%TO.P,J3,1,Pin_1*%
%TO.N,GND*%
X126217500Y-99950000D03*
D13*
%TO.P,J3,2,Pin_2*%
%TO.N,VIN*%
X126217500Y-94950000D03*
%TD*%
D14*
%TO.P,J2,1,Pin_1*%
%TO.N,Net-(AR2-OUT)*%
X149075000Y-95725000D03*
D15*
%TO.P,J2,2,Pin_2*%
%TO.N,Net-(AR3-OUT)*%
X151615000Y-95725000D03*
%TD*%
D16*
%TO.N,+5V*%
X149512500Y-90530000D03*
X147500000Y-98975000D03*
X144125000Y-101700000D03*
%TO.N,Net-(AR1-OUT)*%
X149497500Y-92605000D03*
X151217500Y-86455000D03*
%TO.N,+5V*%
X138325000Y-96550000D03*
X149512500Y-86455000D03*
X149500000Y-98865000D03*
%TO.N,VIN*%
X133537500Y-92500000D03*
X142825000Y-96800000D03*
X138325000Y-101150000D03*
%TD*%
D17*
%TO.N,+5V*%
X147500000Y-100150000D02*
X147500000Y-98975000D01*
X145950000Y-101700000D02*
X147500000Y-100150000D01*
X144125000Y-101700000D02*
X145950000Y-101700000D01*
X149512500Y-90530000D02*
X147500000Y-92542500D01*
X147500000Y-92542500D02*
X147500000Y-98975000D01*
X149512500Y-86455000D02*
X149512500Y-90530000D01*
D18*
X149390000Y-98975000D02*
X149500000Y-98865000D01*
D17*
X147500000Y-98975000D02*
X149390000Y-98975000D01*
X138975000Y-96550000D02*
X144125000Y-101700000D01*
X138325000Y-96550000D02*
X138975000Y-96550000D01*
%TO.N,Net-(AR1-OUT)*%
X151217500Y-90885000D02*
X149497500Y-92605000D01*
X151217500Y-86455000D02*
X151217500Y-90885000D01*
%TO.N,VIN*%
X128667500Y-92500000D02*
X126217500Y-94950000D01*
X138525000Y-92500000D02*
X142825000Y-96800000D01*
X133537500Y-92500000D02*
X133537500Y-96362500D01*
X133537500Y-92500000D02*
X138525000Y-92500000D01*
X133537500Y-96362500D02*
X138325000Y-101150000D01*
X133537500Y-92500000D02*
X128667500Y-92500000D01*
%TD*%
M02*
