%TF.GenerationSoftware,KiCad,Pcbnew,9.0.0*%
%TF.CreationDate,2026-06-29T14:56:33+05:30*%
%TF.ProjectId,White_noise_generator,57686974-655f-46e6-9f69-73655f67656e,rev?*%
%TF.SameCoordinates,Original*%
%TF.FileFunction,Paste,Top*%
%TF.FilePolarity,Positive*%
%FSLAX46Y46*%
G04 Gerber Fmt 4.6, Leading zero omitted, Abs format (unit mm)*
G04 Created by KiCad (PCBNEW 9.0.0) date 2026-06-29 14:56:33*
%MOMM*%
%LPD*%
G01*
G04 APERTURE LIST*
G04 Aperture macros list*
%AMRoundRect*
0 Rectangle with rounded corners*
0 $1 Rounding radius*
0 $2 $3 $4 $5 $6 $7 $8 $9 X,Y pos of 4 corners*
0 Add a 4 corners polygon primitive as box body*
4,1,4,$2,$3,$4,$5,$6,$7,$8,$9,$2,$3,0*
0 Add four circle primitives for the rounded corners*
1,1,$1+$1,$2,$3*
1,1,$1+$1,$4,$5*
1,1,$1+$1,$6,$7*
1,1,$1+$1,$8,$9*
0 Add four rect primitives between the rounded corners*
20,1,$1+$1,$2,$3,$4,$5,0*
20,1,$1+$1,$4,$5,$6,$7,0*
20,1,$1+$1,$6,$7,$8,$9,0*
20,1,$1+$1,$8,$9,$2,$3,0*%
G04 Aperture macros list end*
%ADD10R,1.300000X1.300000*%
%ADD11R,1.300000X2.000000*%
%ADD12R,1.100000X0.650000*%
%ADD13RoundRect,0.250000X-0.325000X-1.100000X0.325000X-1.100000X0.325000X1.100000X-0.325000X1.100000X0*%
%ADD14RoundRect,0.250000X-0.475000X0.250000X-0.475000X-0.250000X0.475000X-0.250000X0.475000X0.250000X0*%
%ADD15RoundRect,0.131250X-0.393750X0.438750X-0.393750X-0.438750X0.393750X-0.438750X0.393750X0.438750X0*%
%ADD16RoundRect,0.081250X-0.243750X0.488750X-0.243750X-0.488750X0.243750X-0.488750X0.243750X0.488750X0*%
%ADD17RoundRect,0.250000X-0.262500X-0.450000X0.262500X-0.450000X0.262500X0.450000X-0.262500X0.450000X0*%
%ADD18R,2.150000X0.950000*%
%ADD19R,2.150000X3.250000*%
%ADD20RoundRect,0.250000X0.262500X0.450000X-0.262500X0.450000X-0.262500X-0.450000X0.262500X-0.450000X0*%
%ADD21RoundRect,0.250000X-0.250000X-0.475000X0.250000X-0.475000X0.250000X0.475000X-0.250000X0.475000X0*%
%ADD22RoundRect,0.250000X0.250000X0.475000X-0.250000X0.475000X-0.250000X-0.475000X0.250000X-0.475000X0*%
%ADD23RoundRect,0.250000X0.475000X-0.250000X0.475000X0.250000X-0.475000X0.250000X-0.475000X-0.250000X0*%
%ADD24RoundRect,0.250000X-0.325000X-0.450000X0.325000X-0.450000X0.325000X0.450000X-0.325000X0.450000X0*%
G04 APERTURE END LIST*
D10*
%TO.C,POT*%
X128850000Y-88900000D03*
X128850000Y-86600000D03*
D11*
X123350000Y-87750000D03*
%TD*%
D12*
%TO.C,VREF*%
X133350000Y-88040000D03*
X133350000Y-89960000D03*
X135450000Y-89000000D03*
%TD*%
D13*
%TO.C,C6*%
X141175000Y-101700000D03*
X144125000Y-101700000D03*
%TD*%
D14*
%TO.C,C7*%
X147100000Y-88400000D03*
X147100000Y-90300000D03*
%TD*%
D15*
%TO.C,AR2*%
X151202500Y-90545000D03*
D16*
X149497500Y-90545000D03*
X149497500Y-92605000D03*
X151402500Y-92605000D03*
%TD*%
D17*
%TO.C,R2*%
X137537500Y-86750000D03*
X139362500Y-86750000D03*
%TD*%
D18*
%TO.C,U1*%
X138325000Y-101150000D03*
X138325000Y-98850000D03*
X138325000Y-96550000D03*
D19*
X132525000Y-98850000D03*
%TD*%
D20*
%TO.C,R1*%
X144625000Y-91350000D03*
X142800000Y-91350000D03*
%TD*%
D21*
%TO.C,C5*%
X140925000Y-96800000D03*
X142825000Y-96800000D03*
%TD*%
D15*
%TO.C,AR3*%
X151205000Y-98865000D03*
D16*
X149500000Y-98865000D03*
X149500000Y-100925000D03*
X151405000Y-100925000D03*
%TD*%
D15*
%TO.C,AR1*%
X151217500Y-86455000D03*
D16*
X149512500Y-86455000D03*
X149512500Y-88515000D03*
X151417500Y-88515000D03*
%TD*%
D22*
%TO.C,C2*%
X147500000Y-98975000D03*
X145600000Y-98975000D03*
%TD*%
D23*
%TO.C,C1*%
X155050000Y-95175000D03*
X155050000Y-93275000D03*
%TD*%
D17*
%TO.C,R4*%
X133537500Y-92500000D03*
X135362500Y-92500000D03*
%TD*%
D24*
%TO.C,D1*%
X142550000Y-88100000D03*
X144600000Y-88100000D03*
%TD*%
M02*
